<?xml version="1.0" encoding="UTF-8" standalone="no"?>
<!-- Generator: Adobe Illustrator 14.0.0, SVG Export Plug-In . SVG Version: 6.00 Build 43363)  -->

<svg
   xmlns:dc="http://purl.org/dc/elements/1.1/"
   xmlns:cc="http://creativecommons.org/ns#"
   xmlns:rdf="http://www.w3.org/1999/02/22-rdf-syntax-ns#"
   xmlns:svg="http://www.w3.org/2000/svg"
   xmlns="http://www.w3.org/2000/svg"
   xmlns:xlink="http://www.w3.org/1999/xlink"
   xmlns:sodipodi="http://sodipodi.sourceforge.net/DTD/sodipodi-0.dtd"
   xmlns:inkscape="http://www.inkscape.org/namespaces/inkscape"
   version="1.1"
   id="Layer_1"
   x="0px"
   y="0px"
   width="255.54019"
   height="70.552429"
   xml:space="preserve"
   inkscape:version="0.91 r13725"
   sodipodi:docname="cimmanon.svg"
   inkscape:export-filename="Z:\websites\cimmanon\static\images\cimmanon.png"
   inkscape:export-xdpi="88.050003"
   inkscape:export-ydpi="88.050003"><metadata
     id="metadata46"><rdf:RDF><cc:Work
         rdf:about=""><dc:format>image/svg+xml</dc:format><dc:type
           rdf:resource="http://purl.org/dc/dcmitype/StillImage" /><dc:title /></cc:Work></rdf:RDF></metadata><defs
     id="defs44" /><sodipodi:namedview
     pagecolor="#ffffff"
     bordercolor="#666666"
     borderopacity="1"
     objecttolerance="10"
     gridtolerance="10"
     guidetolerance="10"
     inkscape:pageopacity="0"
     inkscape:pageshadow="2"
     inkscape:window-width="1920"
     inkscape:window-height="1018"
     id="namedview42"
     showgrid="false"
     inkscape:zoom="4"
     inkscape:cx="100.02902"
     inkscape:cy="50.096288"
     inkscape:window-x="-8"
     inkscape:window-y="-8"
     inkscape:window-maximized="1"
     inkscape:current-layer="Layer_1"
     fit-margin-top="0"
     fit-margin-left="0"
     fit-margin-right="0"
     fit-margin-bottom="0" /><path
     style="fill:#007259"
     inkscape:connector-curvature="0"
     id="path5"
     d="m 81.513486,49.070712 c 0.387916,0.129767 0.750983,0.291283 1.091963,0.485931 0.323034,0.274716 0.589467,0.574282 0.800681,0.897315 0.129766,0.129765 0.2264,0.266433 0.291283,0.412765 0,0.194649 0.03175,0.356165 0.09664,0.485931 0.0635,0.194649 0.09664,0.364448 0.09664,0.509399 0,0.194648 0,0.356165 0,0.485931 0,0.06488 0,0.129765 0,0.194647 0,0.129766 0,0.266434 0,0.412766 0,0.06488 0,0.161516 0,0.291282 -0.06488,0.129765 -0.129767,0.259531 -0.194649,0.387917 l -2.27918,9.439755 c 1.19688,-2.054162 2.489013,-4.109704 3.880542,-6.163865 1.310081,-1.974093 2.763731,-3.890207 4.365093,-5.7511 0.323034,-0.469365 0.750985,-0.865564 1.285231,-1.188597 0.467985,-0.339599 0.962199,-0.606033 1.47988,-0.800682 0.144951,0 0.249868,-0.03175 0.314751,-0.09664 0.06488,0 0.161517,0 0.291282,0 0.06488,-0.06488 0.161517,-0.09664 0.291282,-0.09664 0.06488,0 0.128385,0 0.193268,0 0.274717,0 0.542531,0 0.800682,0 0.209833,0.06488 0.411384,0.161517 0.606032,0.291282 0.387917,0.06488 0.750984,0.234682 1.091964,0.509399 0.323034,0.259531 0.622599,0.549433 0.897315,0.873847 0.193268,0.339599 0.354785,0.708188 0.48455,1.104387 0.129766,0.396199 0.234683,0.796541 0.316131,1.201023 l -3.39462,13.419701 0.193268,1.577895 c 0.14495,0.129765 0.31613,0.194647 0.509398,0.194647 0.129766,0 0.2264,0 0.291283,0 0.339599,0 0.637783,-0.03176 0.897314,-0.09664 0.194649,-0.06488 0.429332,-0.161516 0.704048,-0.291282 0.985666,-0.727516 1.947864,-1.521294 2.885213,-2.378576 0.920779,-0.873846 1.778059,-1.804293 2.570459,-2.789959 l 0.70267,0.897315 -6.86377,6.163864 c -0.469365,0.259531 -0.962198,0.452799 -1.47988,0.582565 -0.59775,0.129765 -1.195499,0.194649 -1.79463,0.194649 -0.06488,0.08145 -0.129765,0.121482 -0.194649,0.121482 -0.129765,0 -0.266433,0 -0.411383,0 -0.194649,0 -0.392058,-0.03589 -0.594989,-0.109058 -0.202932,-0.07317 -0.368591,-0.173942 -0.496975,-0.303707 -0.194648,-0.129766 -0.356165,-0.323033 -0.485931,-0.582565 -0.129766,-0.209833 -0.266433,-0.444516 -0.412765,-0.704047 0.467984,-2.911442 1.035364,-5.791134 1.697996,-8.639074 0.59775,-2.783057 1.293514,-5.564734 2.085913,-8.347791 l -0.800681,-1.213447 -2.76235,1.30594 c -2.199113,2.911442 -4.251894,5.856016 -6.159724,8.832341 -1.987897,3.057773 -3.847411,6.107265 -5.578539,9.148473 l -3.75906,0 c 1.115432,-2.653292 2.138371,-5.338335 3.067437,-8.056509 0.929066,-2.718175 1.79049,-5.4681 2.582888,-8.251158 0.129765,-0.194648 0.226399,-0.387916 0.291282,-0.582565 0,-0.209833 0,-0.412764 0,-0.606032 0,-0.06488 0,-0.129766 0,-0.194649 l 0,-0.09664 c -0.06488,-0.06488 -0.09664,-0.129765 -0.09664,-0.194647 l 0,-0.09664 c -0.06488,-0.274716 -0.161516,-0.509399 -0.291282,-0.704047 -0.194648,-0.194649 -0.42933,-0.364448 -0.704047,-0.509399 -0.323033,0 -0.65435,0.03176 -0.993949,0.09664 -0.323034,0.144951 -0.614315,0.316132 -0.872467,0.5094 -0.662632,0.59913 -1.293514,1.230011 -1.891263,1.892644 -0.599131,0.662632 -1.163749,1.358397 -1.697997,2.087293 -0.727516,1.261763 -1.421899,2.483492 -2.085912,3.663807 -0.727516,1.261763 -1.455032,2.491775 -2.182547,3.688655 -0.727515,1.261764 -1.455031,2.483492 -2.182547,3.663807 -0.792398,1.261762 -1.551664,2.491775 -2.27918,3.688655 l -3.297978,0 4.681224,-19.194261 c 0.259531,-0.259531 0.557716,-0.517681 0.897315,-0.777212 0.259531,-0.274717 0.590848,-0.444516 0.993949,-0.5094 0.194649,-0.129765 0.387916,-0.194648 0.582565,-0.194648 0.209833,0 0.411385,0 0.606032,0 0.129766,0 0.291283,0 0.485931,0 0.144951,0 0.283,0.03176 0.411385,0.09664 -0.467984,2.588409 -1.002232,5.145068 -1.599982,7.668594 -0.599131,2.571842 -1.293514,5.120218 -2.085912,7.643744 1.260382,-2.393761 2.65191,-4.715736 4.170443,-6.964546 1.519914,-2.24881 3.144745,-4.400985 4.874493,-6.455147 0.403101,-0.404482 0.864183,-0.76893 1.381865,-1.091964 0.469365,-0.339599 0.970481,-0.574281 1.503348,-0.704047 0.258151,-0.129765 0.524584,-0.226399 0.800681,-0.291282 0.194648,-0.06488 0.421048,-0.09664 0.679198,-0.09664 0.129767,0 0.266435,0 0.411385,0 0.129765,0 0.226399,0.03175 0.291283,0.09664 l 0,-0.09388 z" /><path
     style="fill:#007259"
     inkscape:connector-curvature="0"
     id="path7"
     d="m 123.5672,49.070712 c 0.38791,0.129767 0.75098,0.291283 1.09196,0.485931 0.32303,0.274716 0.58946,0.574282 0.80068,0.897315 0.12976,0.129765 0.2264,0.266433 0.29128,0.412765 0,0.194649 0.0318,0.356165 0.0966,0.485931 0.0635,0.194649 0.0966,0.364448 0.0966,0.509399 0,0.194648 0,0.356165 0,0.485931 0,0.06488 0,0.129765 0,0.194647 0,0.129766 0,0.266434 0,0.412766 0,0.06488 0,0.161516 0,0.291282 -0.0649,0.129765 -0.12976,0.259531 -0.19465,0.387917 l -2.27918,9.439755 c 1.19689,-2.054162 2.48902,-4.109704 3.88054,-6.163865 1.31008,-1.974093 2.76373,-3.890207 4.3651,-5.7511 0.32303,-0.469365 0.75098,-0.865564 1.28523,-1.188597 0.46798,-0.339599 0.9622,-0.606033 1.47988,-0.800682 0.14495,0 0.24987,-0.03175 0.31475,-0.09664 0.0649,0 0.16151,0 0.29128,0 0.0649,-0.06488 0.16152,-0.09664 0.29128,-0.09664 0.0649,0 0.12839,0 0.19327,0 0.27471,0 0.54253,0 0.80069,0 0.20983,0.06488 0.41138,0.161517 0.60603,0.291282 0.38791,0.06488 0.75098,0.234682 1.09196,0.509399 0.32303,0.259531 0.6226,0.549433 0.89732,0.873847 0.19326,0.339599 0.35477,0.708188 0.48455,1.104387 0.12976,0.396199 0.23467,0.796541 0.31612,1.201023 l -3.3946,13.419692 0.19326,1.577895 c 0.14496,0.129765 0.31613,0.194648 0.5094,0.194648 0.12976,0 0.2264,0 0.29128,0 0.3396,0 0.63779,-0.03176 0.89732,-0.09664 0.19464,-0.06488 0.42933,-0.161516 0.70405,-0.291282 0.98566,-0.727515 1.94786,-1.521294 2.8852,-2.378576 0.92079,-0.873846 1.77808,-1.804293 2.57047,-2.789959 l 0.70267,0.897315 -6.86377,6.163864 c -0.46937,0.259532 -0.9622,0.4528 -1.47988,0.582565 -0.59776,0.129766 -1.1955,0.194649 -1.79463,0.194649 -0.0649,0.08145 -0.12977,0.121482 -0.19465,0.121482 -0.12976,0 -0.26643,0 -0.41138,0 -0.19466,0 -0.39207,-0.03589 -0.595,-0.109058 -0.20293,-0.07317 -0.36858,-0.173941 -0.49697,-0.303707 -0.19465,-0.129765 -0.35616,-0.323032 -0.48593,-0.582565 -0.12976,-0.209833 -0.26643,-0.444516 -0.41276,-0.704047 0.46798,-2.911441 1.03536,-5.791134 1.69799,-8.639074 0.59775,-2.783057 1.29351,-5.564734 2.08591,-8.347791 l -0.80068,-1.213446 -2.76372,1.31008 c -2.19912,2.911443 -4.2519,5.856016 -6.15973,8.832342 -1.9879,3.057774 -3.84741,6.107264 -5.57854,9.148473 l -3.75906,0 c 1.11543,-2.653292 2.13837,-5.338335 3.06743,-8.05651 0.92908,-2.718174 1.7905,-5.4681 2.58289,-8.251157 0.12976,-0.194649 0.2264,-0.387917 0.29128,-0.582565 0,-0.209834 0,-0.412765 0,-0.606033 0,-0.06488 0,-0.129765 0,-0.194648 l 0,-0.09664 c -0.0649,-0.06488 -0.0966,-0.129766 -0.0966,-0.194649 l 0,-0.09664 c -0.0649,-0.274717 -0.16152,-0.509399 -0.29128,-0.704047 -0.19465,-0.194648 -0.42933,-0.364449 -0.70405,-0.509399 -0.32303,0 -0.65435,0.03176 -0.99394,0.09664 -0.32305,0.144951 -0.61432,0.316131 -0.87248,0.509399 -0.66263,0.59913 -1.29351,1.230012 -1.89126,1.892644 -0.59913,0.662634 -1.16375,1.358398 -1.69799,2.087294 -0.72753,1.261763 -1.4219,2.483492 -2.08592,3.663806 -0.72751,1.261764 -1.45502,2.491775 -2.18255,3.688655 -0.72751,1.261764 -1.45503,2.483494 -2.18254,3.663807 -0.79239,1.261764 -1.55166,2.491776 -2.27918,3.688656 l -3.29798,0 4.68123,-19.194261 c 0.25952,-0.259531 0.55771,-0.517682 0.89731,-0.777213 0.25953,-0.274716 0.59084,-0.444516 0.99395,-0.509399 0.19465,-0.129766 0.38792,-0.194648 0.58256,-0.194648 0.20984,0 0.41139,0 0.60603,0 0.12977,0 0.29129,0 0.48594,0 0.14495,0 0.283,0.03175 0.41138,0.09664 -0.46798,2.588409 -1.00223,5.145066 -1.59999,7.668592 -0.59912,2.571844 -1.29351,5.120218 -2.0859,7.643745 1.26037,-2.393761 2.65191,-4.715736 4.17044,-6.964546 1.51992,-2.24881 3.14475,-4.400986 4.8745,-6.455147 0.4031,-0.404482 0.86418,-0.76893 1.38186,-1.091963 0.46937,-0.3396 0.97048,-0.574282 1.50335,-0.704047 0.25815,-0.129766 0.52458,-0.2264 0.80068,-0.291283 0.19465,-0.06488 0.42105,-0.09664 0.6792,-0.09664 0.12976,0 0.26643,0 0.41138,0 0.12977,0 0.2264,0.03176 0.29129,0.09664 l 0,-0.09802 z" /><path
     style="fill:#007259"
     inkscape:connector-curvature="0"
     id="path9"
     d="m 165.41383,49.070712 c 0.12976,0.06488 0.25953,0.09664 0.38792,0.09664 0.0649,0.06488 0.12976,0.129766 0.19465,0.194649 l -0.99534,1.601362 c -0.38791,-0.144951 -0.78411,-0.316131 -1.18859,-0.509399 -0.46936,-0.129765 -0.93045,-0.226399 -1.38325,-0.291282 -0.19465,-0.06488 -0.3962,-0.129765 -0.60603,-0.194649 -0.25953,0 -0.48593,0 -0.6792,0 -0.46936,0 -0.9056,0.03176 -1.31008,0.09664 -0.45281,0.129765 -0.849,0.291283 -1.1886,0.485931 -0.66263,0.469365 -1.29489,1.003613 -1.89264,1.601362 -0.66263,0.662633 -1.28661,1.358397 -1.86918,2.087293 -0.74408,0.857281 -1.40809,1.787728 -1.98928,2.78996 -0.59913,0.987047 -1.10025,2.045879 -1.50473,3.179256 -0.32303,0.792398 -0.59084,1.584797 -0.80068,2.378576 -0.19464,0.85728 -0.32303,1.747693 -0.38791,2.669858 0.0649,0.404482 0.19465,0.777212 0.38791,1.116812 0.14496,0.323033 0.34789,0.614316 0.60603,0.873847 0.12977,0.144951 0.29129,0.251248 0.48594,0.316131 0.14495,0.129765 0.31612,0.2264 0.50939,0.291282 0.0649,0.06488 0.16152,0.09664 0.29128,0.09664 0.0649,0 0.12977,0 0.19465,0 0.0649,0 0.13805,0 0.21812,0 l 0.0967,0 c 0.45279,0 0.91387,-0.09664 1.38325,-0.291282 0.40448,-0.129766 0.76892,-0.331316 1.09196,-0.606033 1.00361,-0.727516 1.90092,-1.521295 2.69332,-2.378575 0.7924,-0.857281 1.55305,-1.754596 2.28056,-2.693326 0.25953,-0.387916 0.52596,-0.784115 0.80068,-1.188597 0.19465,-0.387917 0.38792,-0.784116 0.58257,-1.188598 l 6.35713,-10.33707 2.30541,0 -4.48933,13.419693 c -0.12977,0.534247 -0.22641,1.02708 -0.29129,1.47988 -0.12976,0.469364 -0.19465,0.97048 -0.19465,1.504728 l 0,0.09664 0,0.09664 0,0.09664 c 0,0.06488 0,0.129766 0,0.194648 0,0.274716 0.0317,0.542531 0.0967,0.800681 0.0649,0.3396 0.12978,0.639165 0.19466,0.897315 l 1.698,-0.09664 5.55645,-4.464488 0.99532,0 c -0.12976,0.662633 -0.36445,1.221729 -0.70405,1.674528 -0.32303,0.534248 -0.71922,1.003612 -1.18859,1.408095 -0.72752,0.662632 -1.48817,1.286611 -2.28056,1.869176 -0.85728,0.662633 -1.75459,1.230012 -2.69333,1.697996 -0.12977,0.06488 -0.25953,0.09664 -0.38791,0.09664 -0.19465,0.06488 -0.35617,0.09664 -0.48594,0.09664 -0.20983,0.06488 -0.37962,0.09664 -0.50939,0.09664 -0.19466,0 -0.35617,0 -0.48593,0 -0.20983,0 -0.41277,0 -0.60603,0 -0.19328,0 -0.35617,-0.03176 -0.48593,-0.09664 -0.3396,0 -0.63917,-0.03176 -0.89732,-0.09664 -0.3396,-0.06488 -0.60603,-0.2264 -0.80069,-0.485931 -0.19465,-0.274716 -0.32303,-0.542531 -0.38791,-0.800681 -0.14495,-0.274717 -0.25125,-0.542531 -0.31613,-0.800681 0.0649,-0.987047 0.1698,-1.982377 0.31613,-2.984608 0.12976,-0.922164 0.29128,-1.844328 0.48593,-2.766492 0.12976,-0.469364 0.25953,-0.905598 0.38791,-1.310081 0.14496,-0.323032 0.283,-0.68748 0.41277,-1.091963 0.0649,-0.194648 0.16152,-0.387915 0.29128,-0.582564 0.0649,-0.209834 0.12977,-0.412766 0.19465,-0.606033 -1.05192,1.64968 -2.17564,3.211007 -3.37252,4.683985 -1.26176,1.521294 -2.52353,2.944574 -3.78529,4.27122 -0.66263,0.599131 -1.35839,1.091964 -2.0873,1.47988 -0.79239,0.469364 -1.5848,0.800681 -2.37857,0.99533 -0.32303,0.129765 -0.6226,0.194647 -0.89732,0.194647 -0.32303,0 -0.6226,0 -0.89731,0 -0.12977,0 -0.25953,0 -0.38792,0 -0.12838,0 -0.2264,0 -0.29128,0 -0.40448,-0.06488 -0.76893,-0.194647 -1.09196,-0.387916 -0.40448,-0.129765 -0.7358,-0.331316 -0.99533,-0.606033 -0.3396,-0.323033 -0.60603,-0.719233 -0.80069,-1.188597 -0.19464,-0.387916 -0.33131,-0.817247 -0.41276,-1.286612 0,-0.06488 0,-0.129765 0,-0.194649 0,-0.06488 0,-0.129765 0,-0.194647 l 0,-0.121483 c 0,-0.06488 0,-0.129765 0,-0.194649 0,-0.59913 0.0732,-1.188597 0.21812,-1.771161 0.0649,-0.599131 0.19464,-1.196881 0.38792,-1.796012 0.32303,-1.067114 0.75236,-2.095576 1.28661,-3.081242 0.46936,-1.003612 1.03536,-1.932678 1.69799,-2.789959 0.72752,-0.987047 1.55305,-1.917494 2.47522,-2.78996 0.87384,-0.857281 1.77116,-1.68281 2.69331,-2.475209 0.72753,-0.534248 1.48817,-0.962198 2.28057,-1.286612 0.72752,-0.339599 1.52129,-0.606033 2.37857,-0.800681 0.27472,-0.06488 0.54253,-0.129766 0.80069,-0.194648 0.19465,-0.06488 0.42932,-0.09664 0.70404,-0.09664 0.19466,-0.06488 0.42933,-0.09664 0.70405,-0.09664 0.19465,0 0.42105,0 0.6792,0 0.46936,0 0.93872,0 1.4081,0 0.38791,0.06488 0.78411,0.161516 1.18859,0.291282 l 0,-0.103542 z" /><path
     style="fill:#007259"
     inkscape:connector-curvature="0"
     id="path11"
     d="m 194.81816,48.561314 c 0.45417,0.06488 0.88213,0.169799 1.28799,0.316131 0.40448,0.194648 0.73579,0.452799 0.99532,0.777212 0.32304,0.3396 0.61846,0.70819 0.88627,1.104389 0.26644,0.396199 0.46524,0.861422 0.595,1.39567 -0.58257,2.443458 -1.27972,4.893818 -2.08868,7.352462 -0.79377,2.443458 -1.74907,4.828935 -2.86588,7.159194 l -0.0966,0.995329 c 0.12977,0.129765 0.25954,0.2264 0.38792,0.291283 0.12976,0.06488 0.29129,0.09664 0.48593,0.09664 0.14495,0.06488 0.28438,0.09664 0.41277,0.09664 0.12838,0 0.25953,0 0.38791,0 0.12838,0 0.29957,0 0.51078,0 0.12977,0 0.2264,-0.03176 0.29128,-0.09664 0.53425,-0.259531 1.06022,-0.557716 1.57927,-0.897315 0.46937,-0.323034 0.90698,-0.687482 1.31147,-1.091964 0.59912,-0.534248 1.18998,-1.091963 1.77254,-1.674528 0.53424,-0.534247 1.03536,-1.131998 1.50611,-1.796011 l 0.19464,0.897315 c -0.46936,0.857282 -0.96772,1.64968 -1.49368,2.378576 -0.52596,0.727515 -1.12233,1.391528 -1.78497,1.989278 -0.66401,0.534248 -1.35977,0.999471 -2.08867,1.39567 -0.7289,0.396199 -1.45779,0.691623 -2.1853,0.886272 -0.27472,0.129766 -0.51079,0.194648 -0.70405,0.194648 -0.25953,0.06488 -0.49422,0.09664 -0.70405,0.09664 -0.19465,0 -0.3893,-0.03175 -0.58256,-0.09664 -0.19465,0 -0.39758,-0.06488 -0.60741,-0.194648 -0.32305,-0.06488 -0.62398,-0.194649 -0.8987,-0.387917 -0.25953,-0.194647 -0.45281,-0.461081 -0.58257,-0.800681 -0.0649,-0.129765 -0.0966,-0.259531 -0.0966,-0.387916 -0.0649,-0.06488 -0.12977,-0.169799 -0.19465,-0.316131 -0.0814,-0.194648 -0.12149,-0.421047 -0.12149,-0.679199 -0.0649,-0.209833 -0.0967,-0.444516 -0.0967,-0.704047 l 0,-0.09664 0,-0.09663 c 0,-0.06488 0,-0.129765 0,-0.194649 0,-0.339599 0.0732,-0.704047 0.21812,-1.091963 0.0635,-0.3396 0.19465,-0.639165 0.38791,-0.897315 l 3.98408,-10.240436 c 0.19465,-0.274717 0.35616,-0.574282 0.48594,-0.897316 0.0649,-0.339599 0.0966,-0.704047 0.0966,-1.091964 0,-0.06488 0,-0.129765 0,-0.194647 l 0,-0.09664 c 0,-0.339599 -0.0649,-0.639165 -0.19465,-0.897315 -0.19465,-0.274717 -0.42933,-0.509399 -0.70405,-0.704047 l -0.19465,-0.291283 c -0.79377,0.323034 -1.52268,0.687482 -2.1853,1.091964 -0.7289,0.387916 -1.35978,0.848998 -1.89541,1.383246 -0.32304,0.339599 -0.62398,0.670916 -0.89869,0.995329 -0.32303,0.404482 -0.6157,0.800681 -0.87385,1.188598 l -9.86356,15.211561 -2.67124,0 5.56197,-20.164741 3.98408,-0.897314 -4.17735,14.413641 8.03995,-11.550517 c 0.3396,-0.452799 0.74546,-0.882129 1.21482,-1.286611 0.38791,-0.387916 0.81725,-0.719233 1.28661,-0.995329 0.53426,-0.259531 1.0616,-0.4528 1.57928,-0.582565 0.46936,-0.144951 0.93873,-0.218117 1.40948,-0.218117 l 0,-0.09802 z" /><path
     style="fill:#007259"
     inkscape:connector-curvature="0"
     id="path13"
     d="m 219.26102,48.77943 c 0.0649,0.06488 0.12977,0.09664 0.19465,0.09664 l 0.0967,0 0.0966,0 0.12148,0 c 0.19465,0 0.42105,0 0.6792,0 0.20983,0.06488 0.44452,0.129765 0.70405,0.194647 0.25953,0.06488 0.52596,0.129767 0.80067,0.194649 0.19465,0.129766 0.38793,0.259531 0.58257,0.387916 0.53425,0.274717 1.00361,0.574282 1.40809,0.897315 0.32303,0.404482 0.61432,0.873848 0.87385,1.408095 0.27472,0.517682 0.47765,1.075397 0.60604,1.674528 0.12838,0.59913 0.19465,1.19688 0.19465,1.796011 l 0,0.09663 0,0.09664 0,0.09664 c 0,0.06488 0,0.129765 0,0.194649 -0.0649,0.938729 -0.19465,1.869176 -0.38793,2.789959 -0.19326,0.920784 -0.52596,1.819479 -0.99532,2.693326 -0.46936,0.857281 -1.00361,1.714562 -1.60137,2.571843 -0.66263,0.93873 -1.35839,1.771162 -2.08728,2.500058 -0.59913,0.59913 -1.26177,1.160988 -1.98928,1.686952 -0.72753,0.525965 -1.48816,1.02294 -2.28057,1.492304 -0.38791,0.194649 -0.81724,0.323034 -1.28661,0.387916 -0.53424,0.129766 -1.06711,0.194649 -1.60136,0.194649 -0.19465,0.06488 -0.35616,0.09664 -0.48594,0.09664 -0.19464,0 -0.39619,0 -0.60603,0 -0.59913,0 -1.15684,-0.06488 -1.67452,-0.194649 -0.59913,-0.06488 -1.16513,-0.161517 -1.69799,-0.291282 -0.53426,-0.3396 -0.99534,-0.704047 -1.38325,-1.091964 -0.40448,-0.404481 -0.7358,-0.865564 -0.99534,-1.383246 -0.27471,-0.534247 -0.47765,-1.067115 -0.60603,-1.601362 -0.12838,-0.534247 -0.19465,-1.100246 -0.19465,-1.697996 0.0649,-0.987047 0.19465,-1.982377 0.38792,-2.984608 0.20983,-0.922165 0.54253,-1.844328 0.99533,-2.766492 0.46937,-0.938729 1.00361,-1.836045 1.60136,-2.693326 0.59914,-0.792398 1.26177,-1.553045 1.98928,-2.280561 0.66264,-0.662633 1.3584,-1.261763 2.0873,-1.79601 0.72889,-0.534248 1.48816,-1.027081 2.28056,-1.47988 0.59913,-0.339599 1.26176,-0.606032 1.98927,-0.800681 0.66264,-0.194649 1.39153,-0.323034 2.18394,-0.387916 l 0,-0.09802 z m -1.698,1.481261 c -0.0649,0.06488 -0.12977,0.129765 -0.19465,0.194647 -0.12976,0.06488 -0.22639,0.09664 -0.29128,0.09664 -0.19465,0.06488 -0.36444,0.129765 -0.5094,0.194649 -0.19464,0.08145 -0.35616,0.186364 -0.48593,0.31613 -0.66263,0.534248 -1.29489,1.127857 -1.89264,1.783587 -0.59776,0.65573 -1.12372,1.387387 -1.57789,2.196351 -0.53425,0.857281 -1.00362,1.747694 -1.4081,2.669858 -0.4528,0.93873 -0.81725,1.869176 -1.09197,2.789959 -0.25953,0.857281 -0.45279,1.747694 -0.58256,2.669858 -0.14495,1.003613 -0.21812,1.96581 -0.21812,2.887974 0,0.3396 0.0359,0.675058 0.10906,1.006373 0.0732,0.331317 0.20569,0.659873 0.40035,0.982906 0.25953,0.339599 0.55356,0.639164 0.88627,0.897315 0.33269,0.258151 0.73165,0.461082 1.20102,0.606033 0.12976,0.06488 0.29128,0.09664 0.48593,0.09664 0.14495,0 0.283,0 0.41276,0 0.25953,0 0.55772,-0.03175 0.89732,-0.09664 0.25953,-0.06488 0.51768,-0.138049 0.7772,-0.218117 0.53426,-0.194648 1.00362,-0.452799 1.40811,-0.777213 0.38791,-0.339599 0.75236,-0.735798 1.09196,-1.188597 0.66263,-0.662633 1.26176,-1.399811 1.79601,-2.208776 0.4528,-0.727515 0.88213,-1.521294 1.28661,-2.378575 0.53425,-1.326646 0.99533,-2.685043 1.38325,-4.076572 0.3396,-1.326645 0.63916,-2.685043 0.89732,-4.076572 l 0,-0.09664 0,-0.09664 c 0,-0.06488 0,-0.129765 0,-0.194649 0,-0.339598 -0.0317,-0.704047 -0.0967,-1.091963 -0.12977,-0.339599 -0.29957,-0.639164 -0.50941,-0.897315 -0.19464,-0.404482 -0.42104,-0.76893 -0.67919,-1.091964 -0.3396,-0.274716 -0.67092,-0.509398 -0.99533,-0.704047 -0.0649,-0.06488 -0.16152,-0.129765 -0.29128,-0.194648 -0.14496,0 -0.25125,0 -0.31613,0 -0.12977,0 -0.2264,0 -0.29129,0 -0.12976,0 -0.25953,0 -0.38791,0 -0.20983,0 -0.41276,0 -0.60603,0 -0.19328,0 -0.39621,0.03176 -0.60604,0.09664 l 0,-0.09664 z" /><path
     style="fill:#007259"
     inkscape:connector-curvature="0"
     id="path15"
     d="m 247.98615,48.561314 c 0.45417,0.06488 0.88213,0.169799 1.28799,0.316131 0.40448,0.194648 0.73579,0.452799 0.99533,0.777212 0.32303,0.3396 0.61846,0.70819 0.88627,1.104389 0.26644,0.396199 0.46522,0.861422 0.59499,1.39567 -0.58257,2.443458 -1.27971,4.893818 -2.08868,7.352462 -0.79377,2.443458 -1.74907,4.828935 -2.86588,7.159194 l -0.0966,0.995329 c 0.12976,0.129765 0.25952,0.2264 0.38791,0.291283 0.12976,0.06488 0.29128,0.09664 0.48593,0.09664 0.14495,0.06488 0.28438,0.09664 0.41277,0.09664 0.12838,0 0.25952,0 0.38791,0 0.12838,0 0.29957,0 0.51078,0 0.12977,0 0.22639,-0.03176 0.29129,-0.09664 0.53424,-0.259531 1.0602,-0.557716 1.57926,-0.897315 0.46938,-0.323034 0.90698,-0.687482 1.31146,-1.091964 0.59914,-0.534248 1.18999,-1.091963 1.77255,-1.674528 0.53425,-0.534247 1.03536,-1.131998 1.5061,-1.796011 l 0.19466,0.897315 c -0.46937,0.857282 -0.96772,1.64968 -1.49369,2.378576 -0.52596,0.727515 -1.12233,1.391528 -1.78497,1.989278 -0.66401,0.534248 -1.35977,0.999471 -2.08867,1.39567 -0.72889,0.396199 -1.45779,0.691623 -2.1853,0.886272 -0.27472,0.129766 -0.51079,0.194648 -0.70405,0.194648 -0.25953,0.06488 -0.49422,0.09664 -0.70405,0.09664 -0.19465,0 -0.3893,-0.03175 -0.58256,-0.09664 -0.19465,0 -0.39758,-0.06488 -0.60742,-0.194648 -0.32303,-0.06488 -0.62398,-0.194649 -0.89869,-0.387917 -0.25953,-0.194647 -0.4528,-0.461081 -0.58257,-0.800681 -0.0649,-0.129765 -0.0966,-0.259531 -0.0966,-0.387916 -0.0649,-0.06488 -0.12977,-0.169799 -0.19465,-0.316131 -0.0814,-0.194648 -0.12148,-0.421047 -0.12148,-0.679199 -0.0649,-0.209833 -0.0966,-0.444516 -0.0966,-0.704047 l 0,-0.09664 0,-0.09663 c 0,-0.06488 0,-0.129765 0,-0.194649 0,-0.339599 0.0732,-0.704047 0.21812,-1.091963 0.0635,-0.3396 0.19465,-0.639165 0.38791,-0.897315 L 247.989,54.243393 c 0.19465,-0.274717 0.35617,-0.574282 0.48594,-0.897316 0.0649,-0.339599 0.0967,-0.704047 0.0967,-1.091964 0,-0.06488 0,-0.129765 0,-0.194647 l 0,-0.09664 c 0,-0.339599 -0.0649,-0.639165 -0.19465,-0.897315 -0.19465,-0.274717 -0.42933,-0.509399 -0.70405,-0.704047 l -0.19465,-0.291283 c -0.79377,0.323034 -1.52266,0.687482 -2.1853,1.091964 -0.7289,0.387916 -1.35978,0.848998 -1.89541,1.383246 -0.32303,0.339599 -0.62398,0.670916 -0.89869,0.995329 -0.32303,0.404482 -0.6157,0.800681 -0.87385,1.188598 l -9.86218,15.214323 -2.67124,0 5.56197,-20.164742 3.98408,-0.897315 -4.17734,14.413642 8.03994,-11.550516 c 0.3396,-0.452799 0.74546,-0.88213 1.21482,-1.286612 0.38792,-0.387917 0.81725,-0.719233 1.28662,-0.99533 0.53425,-0.259531 1.06159,-0.452799 1.57927,-0.582565 0.46937,-0.14495 0.93873,-0.218116 1.40948,-0.218116 l 0,-0.100781 z" /><path
     style="fill:#007259"
     inkscape:connector-curvature="0"
     id="path18"
     d="m 56.80971,49.23499 -5.045672,16.910939 0,1.091963 c 0.321653,0.209835 0.619838,0.347882 0.893174,0.412765 0.194648,0.06488 0.419667,0.09664 0.675057,0.09664 0.08145,0 0.153234,0 0.216736,0 l 0.09664,0 c 0.450039,-0.129766 0.840716,-0.325795 1.170651,-0.593608 0.331317,-0.266435 0.633643,-0.571522 0.905599,-0.91112 0.661251,-0.517683 1.246577,-1.140281 1.761499,-1.869177 0.531486,-0.662632 1.062972,-1.358397 1.593079,-2.087293 0.06488,0.197409 0.128385,0.390677 0.193268,0.585325 0,0.197409 0,0.36721 0,0.51216 0,0.129765 0,0.226399 0,0.291283 0,0.132526 -0.03176,0.260911 -0.09664,0.390677 -0.258151,0.472126 -0.554954,0.900076 -0.891793,1.292134 -0.386535,0.472125 -0.813105,0.876607 -1.279709,1.216206 -0.723374,0.862803 -1.544763,1.626212 -2.462785,2.291605 -0.99809,0.665394 -2.019649,1.224491 -3.066057,1.68005 l -0.09664,0 c -0.08007,0 -0.151854,0 -0.216736,0 -0.0635,0 -0.128386,0 -0.193268,0 -0.256771,0 -0.488692,-0.03175 -0.699906,-0.09664 -0.25677,0 -0.48179,-0.06488 -0.675057,-0.194648 -0.336838,-0.06488 -0.635024,-0.259532 -0.893174,-0.585326 -0.25677,-0.274717 -0.426569,-0.574281 -0.506638,-0.897315 0,-0.129766 0,-0.237443 0,-0.317511 -0.0635,-0.06488 -0.09526,-0.161517 -0.09526,-0.291283 -0.06488,-0.06488 -0.09664,-0.161516 -0.09664,-0.291282 0,-0.06488 0,-0.129765 0,-0.194648 0,-0.06488 0,-0.132527 0,-0.19741 0,-0.08145 0,-0.153234 0,-0.218116 0.06488,-0.06488 0.09664,-0.129766 0.09664,-0.194649 0,-0.06488 0,-0.129765 0,-0.194648 0.59637,-2.854842 1.319744,-5.708304 2.171503,-8.563147 0.806203,-2.78996 1.762879,-5.546788 2.872789,-8.271866 l 3.669328,-0.802061 z" /><g
     id="g4405"><g
       transform="matrix(1.3804848,0,0,1.3804848,0,-0.836574)"
       id="g36"><path
         d="m 52.025,2.216 c 3.158,-2.502 8.717,-2.098 10.238,1.447 -0.74,-0.178 -0.896,-0.15 -1.439,-0.1 1.752,1.295 5.176,5.45 0.071,11.756 -0.789,-1.609 -2.908,-0.727 -4.771,-1.09 -1.938,-0.381 -4.377,-1.967 -4.898,-4.164 -0.327,0.221 -0.53,0.795 -0.724,1.678 -0.836,-0.973 -2.827,-6.24 -0.174,-8.127 -1.252,2.611 -0.461,5.285 0.028,6.217 0.388,-0.713 0.902,-1.016 1.374,-1.217 0.034,2.75 3.341,4.973 5.45,4.928 1.692,-0.037 3.53,0.35 3.768,0.742 C 65.57,7.395 59.8,3.606 59.243,3.331 59.823,3.011 60.611,2.806 61.102,2.913 58.849,0.423 54.866,0.942 52.025,2.216 Z"
         id="path38"
         inkscape:connector-curvature="0"
         style="fill:#007259" /></g><path
       d="M 63.804627,3.173734 C 45.642969,3.413939 24.826639,23.697402 43.22712,17.140099 50.903996,14.406739 54.003185,8.8972242 54.407667,8.364357 54.7307,7.914319 55.028885,7.4201055 55.303601,6.8872383 55.368481,6.69259 55.433367,6.4910391 55.49825,6.2812055 c 0,-0.1918874 0,-0.3851555 0,-0.5798035 0,-0.129766 -0.09664,-0.865564 -0.09664,-0.99533 C 55.33673,4.579068 55.271844,4.482434 55.206961,4.417551 55.142081,4.013069 54.972279,3.648621 54.697563,3.325588 54.438031,2.988749 54.141227,2.689184 53.801628,2.431034 53.217683,2.090053 52.596465,1.790488 51.933831,1.532338 51.206316,1.34045 50.470517,1.203782 49.727817,1.122334 c -1.050549,0 -2.076249,0.07317 -3.077101,0.218116 -0.985666,0.194648 -1.971332,0.4528 -2.956999,0.777213 -2.116282,0.662633 -4.169064,1.461934 -6.155581,2.399283 -2.051401,0.922164 -4.006167,2.0458783 -5.8643,3.3697633 -3.038447,2.0541614 -5.882245,4.3430057 -8.531395,6.8651507 -2.715412,2.5042 -5.161631,5.255506 -7.341417,8.245636 -0.808963,1.116812 -1.576513,2.237766 -2.302648,3.369763 -0.727516,1.196881 -1.455032,2.353727 -2.181166,3.467778 -0.922164,1.666245 -1.7780648,3.324207 -2.567702,4.972506 -0.7923983,1.731128 -1.5199138,3.453974 -2.181166,5.165775 -0.5342477,1.649679 -0.9704809,3.307641 -1.3086996,4.972506 -0.3879163,1.649679 -0.7509838,3.338012 -1.090583,5.069141 0,1.116811 0.1049172,2.237765 0.316131,3.369762 0.1283851,1.131998 0.3216529,2.257093 0.5811841,3.369764 0.3395993,0.93873 0.7026667,1.836045 1.090583,2.693325 0.4031016,0.922165 0.8724664,1.809816 1.4067139,2.667098 0.5163014,0.727514 1.1057684,1.391528 1.7684012,1.989278 0.5977498,0.662632 1.2590024,1.259002 1.9865174,1.79325 0.726135,0.469365 1.522675,0.871086 2.386859,1.202402 0.864183,0.331316 1.724225,0.560477 2.581505,0.690243 0.920784,0.194648 1.881602,0.323032 2.883834,0.387916 0.920783,0.129765 1.84985,0.194647 2.787199,0.194647 0.259531,0 0.517681,0 0.777212,0 0.273336,0 0.54115,-0.03175 0.799302,-0.09663 0.194647,0 0.427949,-0.03176 0.702666,-0.09664 0.259531,0 0.525965,0 0.800681,0 2.0514,-0.259532 4.062767,-0.687482 6.034099,-1.286612 1.923015,-0.534248 3.779767,-1.230013 5.573017,-2.087293 0.984286,-0.469366 1.945103,-0.962199 2.883833,-1.47988 0.920783,-0.469366 1.809815,-0.970481 2.667097,-1.504728 l 0.508018,0.701285 -9.838715,5.147828 c -1.713181,0.724755 -3.466397,1.283852 -5.259647,1.669006 -1.79463,0.469366 -3.64448,0.733038 -5.550929,0.797921 -0.469366,0.06488 -0.937349,0.09664 -1.405334,0.09664 -0.517682,0 -1.043646,0 -1.576514,0 -1.130616,0 -2.2212,-0.06488 -3.270368,-0.194648 C 14.671787,69.974019 13.53979,69.877385 12.409173,69.74762 11.551896,69.552965 10.695996,69.254781 9.8400953,68.850299 8.9841947,68.510699 8.1931769,68.1145 7.4656615,67.661701 6.6566974,67.130215 5.9623135,66.564216 5.3811294,65.965085 4.7184966,65.365955 4.1856296,64.703323 3.7811475,63.975807 3.1833976,63.118526 2.651911,62.230874 2.182546,61.308711 1.7297471,60.434863 1.3666795,59.504416 1.0919631,58.51875 0.7689296,57.389514 0.510779,56.232667 0.3161306,55.050973 0.104916,53.920356 0,52.755226 0,51.558346 0.06488,49.97631 0.20155,48.390134 0.4127646,46.805336 0.6074129,45.206735 0.9042171,43.612276 1.3086992,42.02748 L 5.0649983,31.889199 c 1.323885,-2.440698 2.8148086,-4.788903 4.4700098,-7.043234 1.6552009,-2.257093 3.4456909,-4.410649 5.3687059,-6.46343 1.582035,-1.584796 3.239997,-3.135081 4.969744,-4.656375 1.646919,-1.456411 3.326969,-2.916964 5.040151,-4.3899417 2.0514,-1.3915287 4.174586,-2.67676 6.372318,-3.8584553 2.181165,-1.194119 4.395463,-2.2212 6.641512,-3.078481 1.45365,-0.59913 2.940433,-1.097485 4.458966,-1.501967 C 43.920123,0.509398 46.965473,0 46.965473,0 c 0.323033,0 1.550285,0 1.889884,0 0.581184,0 1.172031,0.04003 1.769782,0.121482 0.597749,0.06488 1.194118,0.161517 1.793249,0.291282 0.532867,0.06488 1.061593,0.229161 1.586177,0.495595 0.524584,0.266433 0.989807,0.596369 1.39429,0.981525 0.467984,0.404482 0.864183,0.873846 1.187217,1.408094 0.25815,0.517682 0.459702,1.043646 0.604652,1.577894 0.06488,0.194648 0.09664,0.396199 0.09664,0.606033 0,0.194648 0,0.387916 0,0.5825643 0,0.4044821 -0.03176,0.8034422 -0.09664,1.1996414 -0.06488,0.3961991 -0.1698,0.7551251 -0.316131,1.0781585 -0.259531,0.873847 -0.817247,1.6855718 -1.285232,2.4130878 -0.452798,0.792398 -3.709362,4.200815 -7.103974,6.271542 -2.465546,1.504729 -5.320388,2.84794 -9.548814,3.422222 -15.631229,2.130088 4.060006,-19.181836 26.089783,-18.633783 1.682811,0.04003 2.466926,0.0083 4.239468,0.204311 3.67071,0.426569 13.190533,2.987369 13.585351,12.532041 C 81.260857,5.020823 71.467698,3.233095 68.096554,3.194441 65.867071,3.170971 65.651715,3.150271 63.804627,3.173731 Z"
       id="path40"
       inkscape:connector-curvature="0"
       style="fill:#007259" /></g><g
     transform="matrix(0.12318667,0,0,0.12318667,39.572834,15.04764)"
     id="petals"
     inkscape:label="Flower"><path
       sodipodi:nodetypes="ccc"
       inkscape:connector-curvature="0"
       id="left"
       d="m 54.292935,178.98678 c 0.280674,50 25,75 74.999995,75 0,-50 -24.99999,-75 -74.999995,-75 z"
       style="fill:#eb65a1;fill-opacity:0.49803922;fill-rule:evenodd;stroke:none;stroke-width:1.01444399px;stroke-linecap:butt;stroke-linejoin:miter;stroke-opacity:1" /><use
       height="100%"
       width="100%"
       transform="matrix(0.92387953,0.38268343,-0.38268343,0.92387953,107.03857,-30.144662)"
       id="middle_left"
       xlink:href="#left"
       y="0"
       x="0" /><use
       transform="matrix(0.70711164,0.70710678,-0.70711164,0.70710678,217.42772,-17.032894)"
       height="100%"
       width="100%"
       inkscape:transform-center-y="75"
       id="middle"
       xlink:href="#left"
       y="0"
       x="0" /><use
       transform="matrix(0.38268343,0.92387953,-0.92387953,0.38268343,314.46774,37.339164)"
       height="100%"
       width="100%"
       id="middle_right"
       xlink:href="#left"
       y="0"
       x="0" /><use
       height="100%"
       width="100%"
       transform="matrix(-1,0,0,1,258.58586,0)"
       id="right"
       xlink:href="#left"
       y="0"
       x="0" /></g></svg>