<?xml version="1.0" encoding="UTF-8" standalone="no"?>
<!-- Generator: Adobe Illustrator 14.0.0, SVG Export Plug-In . SVG Version: 6.00 Build 43363)  -->

<svg
   xmlns:dc="http://purl.org/dc/elements/1.1/"
   xmlns:cc="http://creativecommons.org/ns#"
   xmlns:rdf="http://www.w3.org/1999/02/22-rdf-syntax-ns#"
   xmlns:svg="http://www.w3.org/2000/svg"
   xmlns="http://www.w3.org/2000/svg"
   xmlns:xlink="http://www.w3.org/1999/xlink"
   xmlns:sodipodi="http://sodipodi.sourceforge.net/DTD/sodipodi-0.dtd"
   xmlns:inkscape="http://www.inkscape.org/namespaces/inkscape"
   version="1.1"
   id="Layer_1"
   x="0px"
   y="0px"
   width="255.49071"
   height="70.663261"
   xml:space="preserve"
   inkscape:version="0.91 r13725"
   sodipodi:docname="cimmanon.svg"
   inkscape:export-filename="Z:\websites\cimmanon\static\images\cimmanon.png"
   inkscape:export-xdpi="88.050003"
   inkscape:export-ydpi="88.050003"><metadata
     id="metadata46"><rdf:RDF><cc:Work
         rdf:about=""><dc:format>image/svg+xml</dc:format><dc:type
           rdf:resource="http://purl.org/dc/dcmitype/StillImage" /><dc:title></dc:title></cc:Work></rdf:RDF></metadata><defs
     id="defs44" /><sodipodi:namedview
     pagecolor="#ffffff"
     bordercolor="#666666"
     borderopacity="1"
     objecttolerance="10"
     gridtolerance="10"
     guidetolerance="10"
     inkscape:pageopacity="0"
     inkscape:pageshadow="2"
     inkscape:window-width="1920"
     inkscape:window-height="1018"
     id="namedview42"
     showgrid="false"
     inkscape:zoom="3.4314516"
     inkscape:cx="116.75781"
     inkscape:cy="27.474369"
     inkscape:window-x="-8"
     inkscape:window-y="-8"
     inkscape:window-maximized="1"
     inkscape:current-layer="Layer_1"
     fit-margin-top="0"
     fit-margin-left="0"
     fit-margin-right="0"
     fit-margin-bottom="0" /><g
     id="c_leaf"><path
       style="fill:#007259"
       inkscape:connector-curvature="0"
       id="leaf"
       d="M 71.795484,2.250626 C 76.155055,-1.203347 83.82917,-0.64563105 85.928887,4.2481875 84.907328,4.0024612 84.691973,4.0411148 83.942369,4.110139 c 2.41861,1.7877279 7.14539,7.523643 0.09802,16.22898 -1.089203,-2.2212 -4.01445,-1.003613 -6.586293,-1.504729 -2.67538,-0.525964 -6.042382,-2.715413 -6.761615,-5.748338 -0.451418,0.305087 -0.731657,1.097485 -0.999471,2.316453 -1.154085,-1.343212 -3.90263,-8.6142254 -0.240204,-11.2192003 -1.728367,3.6044458 -0.636403,7.2958623 0.03865,8.5824743 0.535628,-0.984286 1.245197,-1.402573 1.896786,-1.68005 0.04694,3.796333 4.612199,6.865151 7.523642,6.803029 2.33578,-0.05108 4.873111,0.48317 5.201667,1.02432 C 90.49415,9.4001568 82.528753,4.1694999 81.759823,3.7898666 82.560504,3.3481114 83.648326,3.065112 84.326144,3.2128239 81.215912,-0.22458319 75.717441,0.49188842 71.795484,2.250626 Z" /><path
       style="fill:#007259"
       d="M 62.63134,3.290168 C 53.279175,3.6369491 44.991291,7.9566639 38.450399,13.910891 36.46972,15.713919 34.714753,18.962676 39.027283,18.343302 44.331286,17.58153 53.303011,13.103362 55.474012,6.3092512 56.647073,2.6381774 51.354387,0.73324704 48.146392,1.205083 37.110769,2.8282166 27.606988,9.7346067 20.176785,17.700942 13.636415,24.713238 8.464081,33.232585 5.8162435,42.481922 c -1.2540523,4.380613 -2.161478,8.888943 -0.9563524,13.463869 1.5223232,5.779078 5.8545969,11.111467 12.1009409,12.005947 8.860049,1.268764 17.761466,-1.518166 25.210824,-6.102825 0.822081,0.6802 -1.424416,1.899887 -2.334905,2.432858 -4.233408,2.478099 -8.658368,4.629661 -13.611787,5.398826 C 21.230523,70.456132 15.986463,70.661325 11.09988,69.405691 4.7399969,67.771485 1.165607,61.254824 0.29189281,55.079019 -0.37052685,50.396739 0.09802263,45.463785 1.6618164,41.037042 3.3155723,36.355637 4.8708436,31.617282 7.7181192,27.449664 12.704219,20.151404 18.866285,13.628613 26.050873,8.592722 32.493266,4.0770572 40.04461,0.50411767 48.027378,0.02804574 51.619086,-0.18615455 56.42296,0.76876784 57.166486,4.9039177 58.068263,9.9191855 53.327713,13.608613 49.722451,16.22344 45.65558,19.173063 38.856622,21.572167 35.420228,20.495482 30.589893,18.982049 35.601802,13.604911 37.834349,11.753539 47.127428,4.047116 59.899419,0.02852421 71.824553,2.5447023 77.494084,3.7409614 82.855165,8.4132735 82.826937,14.579736 81.874578,7.2401848 74.189525,3.1240871 67.323551,3.2138961 c -1.843766,0.024117 -3.5118,0.032502 -4.692211,0.076272 z"
       id="c"
       inkscape:connector-curvature="0"
       sodipodi:nodetypes="ssssssssscsssssscsssscscss" /></g><path
     style="fill:#007259"
     d="m 56.785472,49.263036 c 0,0 -4.195811,11.090112 -5.045672,16.910939 -0.05259,0.360169 0.08665,0.936642 0.309359,1.224546 0.589429,0.761987 1.505086,0.567208 2.346169,0.05451 1.870256,-1.14005 3.144774,-2.948936 4.398851,-4.813589 l 0.464,0.309 c -0.491183,1.018532 -1.887653,3.147573 -2.709537,4.146217 -1.442191,1.752357 -2.949586,2.813696 -5.100123,3.478925 -0.856982,0.265092 -1.851923,-0.08823 -2.573683,-0.656836 -0.754963,-0.857539 -0.858248,-1.800706 -0.802996,-2.821992 0.198085,-0.999961 0.393409,-2.010825 0.628123,-3.004535 1.1273,-4.772651 2.556503,-9.483152 4.416169,-14.025126 z"
     id="i"
     inkscape:connector-curvature="0"
     sodipodi:nodetypes="csssccssccscc" /><path
     style="fill:#007259"
     d="m 83.866455,52.468064 c -0.01508,0.637367 -0.182463,1.144108 -0.324252,1.731359 l -2.149577,8.902974 c 2.655174,-4.453748 5.450265,-8.889016 8.97461,-12.709283 1.099811,-0.90962 2.444112,-1.607551 3.862993,-1.388241 1.925506,0.297617 3.936794,2.096645 3.4604,3.979938 l -3.39462,13.419701 c -0.142149,0.561948 -0.147122,1.521633 0.429848,1.72388 1.366823,0.479115 2.590605,-0.32477 3.574671,-1.222303 1.473227,-1.192474 2.860462,-2.685678 4.046232,-4.163614 l 0.464,0.309 c 0,0 -3.031767,4.68301 -6.624848,6.630301 -1.080995,0.585852 -2.456771,0.886648 -3.653227,0.898696 -1.571204,0.01582 -2.340213,-1.598998 -1.991343,-3.06179 1.239427,-5.19685 2.517795,-9.676323 3.557277,-14.917345 0.258445,-1.303069 -0.568277,-1.749183 -1.050294,-1.802546 -0.482017,-0.05336 -1.303209,-0.382046 -2.512737,1.187932 -1.209548,1.569978 -8.172769,11.771323 -11.738283,17.980814 l -3.75906,0 c 2.239314,-5.304485 3.824886,-10.849546 5.650325,-16.307667 0.301076,-0.900228 0.441844,-2.037016 -0.250132,-2.616547 -1.588647,-1.330495 -3.295374,1.047312 -4.26404,2.351583 -1.925856,2.59309 -3.522578,5.134901 -5.192195,7.858389 -1.775123,2.895589 -3.493177,5.824739 -5.280182,8.712857 l -3.297978,0 4.681224,-20.161677 4.416624,-0.898 c -1.219964,4.767085 -2.653138,11.05672 -4.125336,15.793134 2.608278,-4.887862 5.681954,-9.566955 9.358112,-13.715527 1.273971,-1.085059 2.919231,-1.982746 4.588277,-1.752496 1.669045,0.230249 2.579757,1.704176 2.543511,3.236478 z"
     id="m"
     inkscape:connector-curvature="0"
     sodipodi:nodetypes="ssccsssscccsssszzccssssccccccss" /><path
     style="display:none;fill:#007259"
     inkscape:connector-curvature="0"
     id="old_m"
     d="m 123.54296,49.098758 c 0.38791,0.129767 0.75098,0.291283 1.09196,0.485931 0.32303,0.274716 0.58946,0.574282 0.80068,0.897315 0.12976,0.129765 0.2264,0.266433 0.29128,0.412765 0,0.194649 0.0318,0.356165 0.0966,0.485931 0.0635,0.194649 0.0966,0.364448 0.0966,0.509399 0,0.194648 0,0.356165 0,0.485931 0,0.06488 0,0.129765 0,0.194647 0,0.129766 0,0.266434 0,0.412766 0,0.06488 0,0.161516 0,0.291282 -0.0649,0.129765 -0.12976,0.259531 -0.19465,0.387917 l -2.27918,9.439755 c 1.19689,-2.054162 2.48902,-4.109704 3.88054,-6.163865 1.31008,-1.974093 2.76373,-3.890207 4.3651,-5.7511 0.32303,-0.469365 0.75098,-0.865564 1.28523,-1.188597 0.46798,-0.339599 0.9622,-0.606033 1.47988,-0.800682 0.14495,0 0.24987,-0.03175 0.31475,-0.09664 0.0649,0 0.16151,0 0.29128,0 0.0649,-0.06488 0.16152,-0.09664 0.29128,-0.09664 0.0649,0 0.12839,0 0.19327,0 0.27471,0 0.54253,0 0.80069,0 0.20983,0.06488 0.41138,0.161517 0.60603,0.291282 0.38791,0.06488 0.75098,0.234682 1.09196,0.509399 0.32303,0.259531 0.6226,0.549433 0.89732,0.873847 0.19326,0.339599 0.35477,0.708188 0.48455,1.104387 0.12976,0.396199 0.23467,0.796541 0.31612,1.201023 l -3.3946,13.419692 0.19326,1.577895 c 0.14496,0.129765 0.31613,0.194648 0.5094,0.194648 0.12976,0 0.2264,0 0.29128,0 0.3396,0 0.63779,-0.03176 0.89732,-0.09664 0.19464,-0.06488 0.42933,-0.161516 0.70405,-0.291282 0.98566,-0.727515 1.94786,-1.521294 2.8852,-2.378576 0.92079,-0.873846 1.77808,-1.804293 2.57047,-2.789959 l 0.70267,0.897315 -6.86377,6.163864 c -0.46937,0.259532 -0.9622,0.4528 -1.47988,0.582565 -0.59776,0.129766 -1.1955,0.194649 -1.79463,0.194649 -0.0649,0.08145 -0.12977,0.121482 -0.19465,0.121482 -0.12976,0 -0.26643,0 -0.41138,0 -0.19466,0 -0.39207,-0.03589 -0.595,-0.109058 -0.20293,-0.07317 -0.36858,-0.173941 -0.49697,-0.303707 -0.19465,-0.129765 -0.35616,-0.323032 -0.48593,-0.582565 -0.12976,-0.209833 -0.26643,-0.444516 -0.41276,-0.704047 0.46798,-2.911441 1.03536,-5.791134 1.69799,-8.639074 0.59775,-2.783057 1.29351,-5.564734 2.08591,-8.347791 l -0.80068,-1.213446 -2.76372,1.31008 c -2.19912,2.911443 -4.2519,5.856016 -6.15973,8.832342 -1.9879,3.057774 -3.84741,6.107264 -5.57854,9.148473 l -3.75906,0 c 1.11543,-2.653292 2.13837,-5.338335 3.06743,-8.05651 0.92908,-2.718174 1.7905,-5.4681 2.58289,-8.251157 0.12976,-0.194649 0.2264,-0.387917 0.29128,-0.582565 0,-0.209834 0,-0.412765 0,-0.606033 0,-0.06488 0,-0.129765 0,-0.194648 l 0,-0.09664 c -0.0649,-0.06488 -0.0966,-0.129766 -0.0966,-0.194649 l 0,-0.09664 c -0.0649,-0.274717 -0.16152,-0.509399 -0.29128,-0.704047 -0.19465,-0.194648 -0.42933,-0.364449 -0.70405,-0.509399 -0.32303,0 -0.65435,0.03176 -0.99394,0.09664 -0.32305,0.144951 -0.61432,0.316131 -0.87248,0.509399 -0.66263,0.59913 -1.29351,1.230012 -1.89126,1.892644 -0.59913,0.662634 -1.16375,1.358398 -1.69799,2.087294 -0.72753,1.261763 -1.4219,2.483492 -2.08592,3.663806 -0.72751,1.261764 -1.45502,2.491775 -2.18255,3.688655 -0.72751,1.261764 -1.45503,2.483494 -2.18254,3.663807 -0.79239,1.261764 -1.55166,2.491776 -2.27918,3.688656 l -3.29798,0 4.68123,-19.194261 c 0.25952,-0.259531 0.55771,-0.517682 0.89731,-0.777213 0.25953,-0.274716 0.59084,-0.444516 0.99395,-0.509399 0.19465,-0.129766 0.38792,-0.194648 0.58256,-0.194648 0.20984,0 0.41139,0 0.60603,0 0.12977,0 0.29129,0 0.48594,0 0.14495,0 0.283,0.03175 0.41138,0.09664 -0.46798,2.588409 -1.00223,5.145066 -1.59999,7.668592 -0.59912,2.571844 -1.29351,5.120218 -2.0859,7.643745 1.26037,-2.393761 2.65191,-4.715736 4.17044,-6.964546 1.51992,-2.24881 3.14475,-4.400986 4.8745,-6.455147 0.4031,-0.404482 0.86418,-0.76893 1.38186,-1.091963 0.46937,-0.3396 0.97048,-0.574282 1.50335,-0.704047 0.25815,-0.129766 0.52458,-0.2264 0.80068,-0.291283 0.19465,-0.06488 0.42105,-0.09664 0.6792,-0.09664 0.12976,0 0.26643,0 0.41138,0 0.12977,0 0.2264,0.03176 0.29129,0.09664 l 0,-0.09802 z" /><use
     x="0"
     y="0"
     xlink:href="#m"
     id="m2"
     transform="translate(42.052719,0)"
     width="100%"
     height="100%" /><path
     style="fill:#007259"
     d="m 164.75527,50.940543 c -1.37779,-0.888735 -2.27757,-0.84682 -3.3744,-0.944464 -1.31974,-0.09632 -3.1859,0.488302 -4.17412,1.392004 -2.62478,2.400282 -4.36909,5.097158 -5.6852,8.426911 -0.7086,1.792767 -1.47064,3.685562 -1.31743,5.620151 0.0945,1.192837 1.0524,2.355239 2.25318,2.544522 1.38087,0.217672 2.68145,-0.561812 3.71748,-1.455333 1.96543,-1.695087 3.70391,-3.672396 5.11469,-5.848337 1.13966,-1.757768 2.24139,-3.428465 3.25285,-5.167228 l 3.61392,-6.212583 2.30541,0 c -1.50629,4.541036 -3.15909,9.037547 -4.53644,13.618097 -0.48037,1.597545 -1.14516,3.569362 -0.14747,4.968768 0.33773,0.473711 1.38112,0.447923 2.16616,0.04721 1.93996,-0.990236 3.77508,-2.86849 5.08786,-5.187786 l 0.54792,0.309 c -1.39526,2.879344 -2.61731,4.384045 -4.37586,5.701301 -1.13245,0.848273 -2.69676,1.721215 -4.19326,1.790116 -0.95011,0.04374 -1.84651,-0.19006 -2.50872,-0.960461 -0.88332,-1.027638 -0.68375,-2.386881 -0.513,-3.648442 0.31672,-2.339983 0.82152,-4.530334 1.75165,-6.844666 -0.72141,0.831943 -1.63358,2.17649 -1.91154,2.556121 -1.89533,2.588605 -3.00589,3.9833 -5.35033,6.168783 -1.41854,1.322355 -3.29782,2.316249 -5.25254,2.450163 -0.8537,0.05849 -1.69864,-0.0039 -2.52908,-0.387916 -1.30899,-0.605348 -2.1746,-1.987118 -2.20878,-3.345587 -0.0834,-3.314276 1.29493,-6.506363 3.11179,-9.222993 1.58567,-2.370948 3.65417,-4.412155 5.92175,-6.116999 1.91275,-1.438068 4.35994,-2.100526 6.73294,-2.279855 1.35165,-0.07765 2.6691,-8.33e-4 3.73366,0.241325 z"
     id="a"
     inkscape:connector-curvature="0"
     sodipodi:nodetypes="ccsssssssccsssccsssscsssssssccc" /><path
     style="fill:#007259"
     d="m 197.429,50.07691 c 0.8268,1.00358 1.19987,2.158615 0.78974,3.481034 -1.38274,4.458499 -3.55271,9.353891 -4.62143,13.20479 -0.21536,0.776007 0.0702,1.37318 0.99647,1.387586 0.44366,0.0069 1.19724,0.09745 2.33151,-0.537325 1.75688,-0.983206 2.62365,-1.569246 3.85253,-3.306544 0.31949,-0.451669 0.76061,-1.006885 1.07894,-1.563976 l 0.464,0.309 c -0.39396,0.972574 -1.33034,2.506778 -1.86105,3.144307 -1.85311,2.22609 -3.71898,3.807926 -6.73908,4.236479 -1.16709,0.16561 -2.37923,-0.219555 -3.13977,-1.306622 -0.53892,-0.770301 -0.54344,-2.032332 -0.3606,-2.883823 0.23279,-1.084108 0.69996,-2.006579 1.09006,-3.009277 l 3.48635,-8.9611 c 0.40557,-1.04246 0.8027,-2.179662 0.38789,-3.177882 -0.46618,-1.121826 -1.85171,-1.186951 -2.80137,-0.629895 -1.41929,0.832538 -2.21262,1.920792 -3.19643,3.256396 -1.5165,2.084251 -2.83643,4.305054 -4.26437,6.450762 l -6.35334,9.798105 -2.67124,0 5.56197,-20.164741 3.98408,-0.897709 -4.17735,14.414036 c 2.72633,-3.9043 5.35464,-7.879387 8.1704,-11.719214 0.75628,-1.031339 2.45506,-2.331353 4.43366,-2.734234 1.97861,-0.402881 2.87967,0.38596 3.55843,1.209847 z"
     id="n"
     inkscape:connector-curvature="0"
     sodipodi:nodetypes="ssssssccsssssssscccccccscs" /><path
     style="fill:#007259"
     d="m 222.92195,49.877363 c 1.29044,0.804639 2.0818,2.143988 2.41736,3.580173 0.57775,2.472788 0.18168,5.135927 -0.86988,7.41677 -1.74891,3.793381 -4.71749,7.163844 -8.5315,8.927348 -1.2298,0.568631 -2.66132,0.61684 -3.99931,0.543029 -1.22866,-0.06778 -2.56898,-0.157128 -3.61702,-0.872096 -2.02708,-1.382865 -2.77233,-4.012029 -2.53134,-6.3798 0.49231,-4.837108 3.55255,-9.085712 7.43806,-11.839831 1.67061,-1.184157 3.56091,-2.142761 5.42734,-2.239751 1.86642,-0.09699 3.14552,0.165319 4.26629,0.864158 z m -8.7388,2.985734 c -1.95539,2.287813 -3.30213,5.055341 -4.15843,7.917245 -0.62858,2.100815 -1.08582,4.390949 -0.57136,6.543394 0.45973,1.923467 2.87365,2.768473 4.71038,2.14006 1.31883,-0.451222 2.28244,-1.451283 3.1748,-2.461069 2.84569,-3.220142 3.98945,-7.474318 4.83805,-11.570958 0.21721,-1.048573 0.0353,-2.545257 -0.30704,-3.152381 -0.65093,-1.154221 -1.90458,-2.21462 -3.77719,-1.819078 -1.87261,0.395541 -2.98122,1.317035 -3.90921,2.402787 z"
     id="o"
     inkscape:connector-curvature="0"
     sodipodi:nodetypes="sssssssssssssssssss" /><path
     style="display:none;fill:#007259"
     inkscape:connector-curvature="0"
     id="old_n"
     d="m 247.96191,48.58936 c 0.45417,0.06488 0.88213,0.169799 1.28799,0.316131 0.40448,0.194648 0.73579,0.452799 0.99533,0.777212 0.32303,0.3396 0.61846,0.70819 0.88627,1.104389 0.26644,0.396199 0.46522,0.861422 0.59499,1.39567 -0.58257,2.443458 -1.27971,4.893818 -2.08868,7.352462 -0.79377,2.443458 -1.74907,4.828935 -2.86588,7.159194 l -0.0966,0.995329 c 0.12976,0.129765 0.25952,0.2264 0.38791,0.291283 0.12976,0.06488 0.29128,0.09664 0.48593,0.09664 0.14495,0.06488 0.28438,0.09664 0.41277,0.09664 0.12838,0 0.25952,0 0.38791,0 0.12838,0 0.29957,0 0.51078,0 0.12977,0 0.22639,-0.03176 0.29129,-0.09664 0.53424,-0.259531 1.0602,-0.557716 1.57926,-0.897315 0.46938,-0.323034 0.90698,-0.687482 1.31146,-1.091964 0.59914,-0.534248 1.18999,-1.091963 1.77255,-1.674528 0.53425,-0.534247 1.03536,-1.131998 1.5061,-1.796011 l 0.19466,0.897315 c -0.46937,0.857282 -0.96772,1.64968 -1.49369,2.378576 -0.52596,0.727515 -1.12233,1.391528 -1.78497,1.989278 -0.66401,0.534248 -1.35977,0.999471 -2.08867,1.39567 -0.72889,0.396199 -1.45779,0.691623 -2.1853,0.886272 -0.27472,0.129766 -0.51079,0.194648 -0.70405,0.194648 -0.25953,0.06488 -0.49422,0.09664 -0.70405,0.09664 -0.19465,0 -0.3893,-0.03175 -0.58256,-0.09664 -0.19465,0 -0.39758,-0.06488 -0.60742,-0.194648 -0.32303,-0.06488 -0.62398,-0.194649 -0.89869,-0.387917 -0.25953,-0.194647 -0.4528,-0.461081 -0.58257,-0.800681 -0.0649,-0.129765 -0.0966,-0.259531 -0.0966,-0.387916 -0.0649,-0.06488 -0.12977,-0.169799 -0.19465,-0.316131 -0.0814,-0.194648 -0.12148,-0.421047 -0.12148,-0.679199 -0.0649,-0.209833 -0.0966,-0.444516 -0.0966,-0.704047 l 0,-0.09664 0,-0.09663 c 0,-0.06488 0,-0.129765 0,-0.194649 0,-0.339599 0.0732,-0.704047 0.21812,-1.091963 0.0635,-0.3396 0.19465,-0.639165 0.38791,-0.897315 l 3.98408,-10.240436 c 0.19465,-0.274717 0.35617,-0.574282 0.48594,-0.897316 0.0649,-0.339599 0.0967,-0.704047 0.0967,-1.091964 0,-0.06488 0,-0.129765 0,-0.194647 l 0,-0.09664 c 0,-0.339599 -0.0649,-0.639165 -0.19465,-0.897315 -0.19465,-0.274717 -0.42933,-0.509399 -0.70405,-0.704047 l -0.19465,-0.291283 c -0.79377,0.323034 -1.52266,0.687482 -2.1853,1.091964 -0.7289,0.387916 -1.35978,0.848998 -1.89541,1.383246 -0.32303,0.339599 -0.62398,0.670916 -0.89869,0.995329 -0.32303,0.404482 -0.6157,0.800681 -0.87385,1.188598 l -9.86218,15.214323 -2.67124,0 5.56197,-20.164742 3.98408,-0.897315 -4.17734,14.413642 8.03994,-11.550516 c 0.3396,-0.452799 0.74546,-0.88213 1.21482,-1.286612 0.38792,-0.387917 0.81725,-0.719233 1.28662,-0.99533 0.53425,-0.259531 1.06159,-0.452799 1.57927,-0.582565 0.46937,-0.14495 0.93873,-0.218116 1.40948,-0.218116 l 0,-0.100781 z" /><use
     x="0"
     y="0"
     xlink:href="#n"
     id="n2"
     transform="translate(53.16995,0)"
     width="100%"
     height="100%" /><g
     transform="matrix(0.14666668,0,0,0.14666668,36.525266,9.112076)"
     id="petals"
     inkscape:label="Flower"><path
       sodipodi:nodetypes="ccc"
       inkscape:connector-curvature="0"
       id="left"
       d="m 54.292935,178.98678 c 0.280674,50 25,75 74.999995,75 0,-50 -24.99999,-75 -74.999995,-75 z"
       style="fill:#eb65a1;fill-opacity:0.49803922;fill-rule:evenodd;stroke:none;stroke-width:1.01444399px;stroke-linecap:butt;stroke-linejoin:miter;stroke-opacity:1" /><use
       height="100%"
       width="100%"
       transform="matrix(0.92387953,0.38268343,-0.38268343,0.92387953,107.03857,-30.144662)"
       id="middle_left"
       xlink:href="#left"
       y="0"
       x="0" /><use
       transform="matrix(0.70711164,0.70710678,-0.70711164,0.70710678,217.42772,-17.032894)"
       height="100%"
       width="100%"
       inkscape:transform-center-y="75"
       id="middle"
       xlink:href="#left"
       y="0"
       x="0" /><use
       transform="matrix(0.38268343,0.92387953,-0.92387953,0.38268343,314.46774,37.339164)"
       height="100%"
       width="100%"
       id="middle_right"
       xlink:href="#left"
       y="0"
       x="0" /><use
       height="100%"
       width="100%"
       transform="matrix(-1,0,0,1,258.58586,0)"
       id="right"
       xlink:href="#left"
       y="0"
       x="0" /></g></svg>