<?xml version="1.0" encoding="utf-8"?>
<!-- Generator: Adobe Illustrator 14.0.0, SVG Export Plug-In . SVG Version: 6.00 Build 43363)  -->
<!DOCTYPE svg PUBLIC "-//W3C//DTD SVG 1.1//EN" "http://www.w3.org/Graphics/SVG/1.1/DTD/svg11.dtd">
<svg version="1.1" id="Layer_1" xmlns="http://www.w3.org/2000/svg" xmlns:xlink="http://www.w3.org/1999/xlink" x="0px" y="0px"
	 width="185.108px" height="51.7px" xml:space="preserve">
<g>
	<path fill="#007259" d="M59.047,36.152c0.281,0.094,0.544,0.211,0.791,0.352c0.234,0.199,0.427,0.416,0.58,0.65
		c0.094,0.094,0.164,0.193,0.211,0.299c0,0.141,0.023,0.258,0.07,0.352c0.046,0.141,0.07,0.264,0.07,0.369c0,0.141,0,0.258,0,0.352
		c0,0.047,0,0.094,0,0.141c0,0.094,0,0.193,0,0.299c0,0.047,0,0.117,0,0.211c-0.047,0.094-0.094,0.188-0.141,0.281l-1.651,6.838
		c0.867-1.488,1.803-2.977,2.811-4.465c0.949-1.43,2.002-2.818,3.162-4.166c0.234-0.34,0.544-0.627,0.931-0.861
		c0.339-0.246,0.697-0.439,1.072-0.58c0.105,0,0.181-0.023,0.228-0.07c0.047,0,0.117,0,0.211,0c0.047-0.047,0.117-0.07,0.211-0.07
		c0.047,0,0.093,0,0.14,0c0.199,0,0.393,0,0.58,0c0.152,0.047,0.298,0.117,0.439,0.211c0.281,0.047,0.544,0.17,0.791,0.369
		c0.234,0.188,0.451,0.398,0.65,0.633c0.14,0.246,0.257,0.513,0.351,0.8c0.094,0.287,0.17,0.577,0.229,0.87l-2.459,9.721l0.14,1.143
		c0.105,0.094,0.229,0.141,0.369,0.141c0.094,0,0.164,0,0.211,0c0.246,0,0.462-0.023,0.65-0.07c0.141-0.047,0.311-0.117,0.51-0.211
		c0.714-0.527,1.411-1.102,2.09-1.723c0.667-0.633,1.288-1.307,1.862-2.021l0.509,0.65l-4.972,4.465
		c-0.34,0.188-0.697,0.328-1.072,0.422c-0.433,0.094-0.866,0.141-1.3,0.141c-0.047,0.059-0.094,0.088-0.141,0.088
		c-0.094,0-0.193,0-0.298,0c-0.141,0-0.284-0.026-0.431-0.079s-0.267-0.126-0.36-0.22c-0.141-0.094-0.258-0.234-0.352-0.422
		c-0.094-0.152-0.193-0.322-0.299-0.51c0.339-2.109,0.75-4.195,1.23-6.258c0.433-2.016,0.937-4.031,1.511-6.047l-0.58-0.879
		L65.6,38.244c-1.593,2.109-3.08,4.242-4.462,6.398c-1.44,2.215-2.787,4.424-4.041,6.627h-2.723
		c0.808-1.922,1.549-3.867,2.222-5.836s1.297-3.961,1.871-5.977c0.094-0.141,0.164-0.281,0.211-0.422c0-0.152,0-0.299,0-0.439
		c0-0.047,0-0.094,0-0.141v-0.07c-0.047-0.047-0.07-0.094-0.07-0.141v-0.07c-0.047-0.199-0.117-0.369-0.211-0.51
		c-0.141-0.141-0.311-0.264-0.51-0.369c-0.234,0-0.474,0.023-0.72,0.07c-0.234,0.105-0.445,0.229-0.632,0.369
		c-0.48,0.434-0.937,0.891-1.37,1.371c-0.434,0.48-0.843,0.984-1.23,1.512c-0.527,0.914-1.03,1.799-1.511,2.654
		c-0.527,0.914-1.054,1.805-1.581,2.672c-0.527,0.914-1.054,1.799-1.581,2.654c-0.574,0.914-1.124,1.805-1.651,2.672h-2.389
		l3.391-13.904c0.188-0.188,0.404-0.375,0.65-0.563c0.188-0.199,0.428-0.322,0.72-0.369c0.141-0.094,0.281-0.141,0.422-0.141
		c0.152,0,0.298,0,0.439,0c0.094,0,0.211,0,0.352,0c0.105,0,0.205,0.023,0.298,0.07c-0.339,1.875-0.726,3.727-1.159,5.555
		c-0.434,1.863-0.937,3.709-1.511,5.537c0.913-1.734,1.921-3.416,3.021-5.045c1.101-1.629,2.278-3.188,3.531-4.676
		c0.292-0.293,0.626-0.557,1.001-0.791c0.34-0.246,0.703-0.416,1.089-0.51c0.187-0.094,0.38-0.164,0.58-0.211
		c0.141-0.047,0.305-0.07,0.492-0.07c0.094,0,0.193,0,0.298,0c0.094,0,0.164,0.023,0.211,0.07V36.152z"/>
	<path fill="#007259" d="M89.51,36.152c0.281,0.094,0.544,0.211,0.791,0.352c0.234,0.199,0.427,0.416,0.58,0.65
		c0.094,0.094,0.164,0.193,0.211,0.299c0,0.141,0.023,0.258,0.07,0.352c0.046,0.141,0.07,0.264,0.07,0.369c0,0.141,0,0.258,0,0.352
		c0,0.047,0,0.094,0,0.141c0,0.094,0,0.193,0,0.299c0,0.047,0,0.117,0,0.211c-0.047,0.094-0.094,0.188-0.141,0.281l-1.651,6.838
		c0.867-1.488,1.803-2.977,2.811-4.465c0.949-1.43,2.002-2.818,3.162-4.166c0.234-0.34,0.544-0.627,0.931-0.861
		c0.339-0.246,0.697-0.439,1.072-0.58c0.105,0,0.181-0.023,0.228-0.07c0.047,0,0.117,0,0.211,0c0.047-0.047,0.117-0.07,0.211-0.07
		c0.047,0,0.093,0,0.14,0c0.199,0,0.393,0,0.58,0c0.152,0.047,0.298,0.117,0.439,0.211c0.281,0.047,0.544,0.17,0.791,0.369
		c0.234,0.188,0.451,0.398,0.65,0.633c0.14,0.246,0.257,0.513,0.351,0.8c0.094,0.287,0.17,0.577,0.229,0.87l-2.459,9.721l0.14,1.143
		c0.105,0.094,0.229,0.141,0.369,0.141c0.094,0,0.164,0,0.211,0c0.246,0,0.462-0.023,0.65-0.07c0.141-0.047,0.311-0.117,0.51-0.211
		c0.714-0.527,1.411-1.102,2.09-1.723c0.667-0.633,1.288-1.307,1.862-2.021l0.509,0.65l-4.972,4.465
		c-0.34,0.188-0.697,0.328-1.072,0.422c-0.433,0.094-0.866,0.141-1.3,0.141c-0.047,0.059-0.094,0.088-0.141,0.088
		c-0.094,0-0.193,0-0.298,0c-0.141,0-0.284-0.026-0.431-0.079s-0.267-0.126-0.36-0.22c-0.141-0.094-0.258-0.234-0.352-0.422
		c-0.094-0.152-0.193-0.322-0.299-0.51c0.339-2.109,0.75-4.195,1.23-6.258c0.433-2.016,0.937-4.031,1.511-6.047l-0.58-0.879
		l-2.002,0.949c-1.593,2.109-3.08,4.242-4.462,6.398c-1.44,2.215-2.787,4.424-4.041,6.627h-2.723
		c0.808-1.922,1.549-3.867,2.222-5.836s1.297-3.961,1.871-5.977c0.094-0.141,0.164-0.281,0.211-0.422c0-0.152,0-0.299,0-0.439
		c0-0.047,0-0.094,0-0.141v-0.07c-0.047-0.047-0.07-0.094-0.07-0.141v-0.07c-0.047-0.199-0.117-0.369-0.211-0.51
		c-0.141-0.141-0.311-0.264-0.51-0.369c-0.234,0-0.474,0.023-0.72,0.07c-0.234,0.105-0.445,0.229-0.632,0.369
		c-0.48,0.434-0.937,0.891-1.37,1.371c-0.434,0.48-0.843,0.984-1.23,1.512c-0.527,0.914-1.03,1.799-1.511,2.654
		c-0.527,0.914-1.054,1.805-1.581,2.672c-0.527,0.914-1.054,1.799-1.581,2.654c-0.574,0.914-1.124,1.805-1.651,2.672h-2.389
		l3.391-13.904c0.188-0.188,0.404-0.375,0.65-0.563c0.188-0.199,0.428-0.322,0.72-0.369c0.141-0.094,0.281-0.141,0.422-0.141
		c0.152,0,0.298,0,0.439,0c0.094,0,0.211,0,0.352,0c0.105,0,0.205,0.023,0.298,0.07c-0.339,1.875-0.726,3.727-1.159,5.555
		c-0.434,1.863-0.937,3.709-1.511,5.537c0.913-1.734,1.921-3.416,3.021-5.045c1.101-1.629,2.278-3.188,3.531-4.676
		c0.292-0.293,0.626-0.557,1.001-0.791c0.34-0.246,0.703-0.416,1.089-0.51c0.187-0.094,0.38-0.164,0.58-0.211
		c0.141-0.047,0.305-0.07,0.492-0.07c0.094,0,0.193,0,0.298,0c0.094,0,0.164,0.023,0.211,0.07V36.152z"/>
	<path fill="#007259" d="M119.823,36.152c0.094,0.047,0.188,0.07,0.281,0.07c0.047,0.047,0.094,0.094,0.141,0.141l-0.721,1.16
		c-0.281-0.105-0.568-0.229-0.861-0.369c-0.34-0.094-0.674-0.164-1.002-0.211c-0.141-0.047-0.287-0.094-0.439-0.141
		c-0.188,0-0.352,0-0.492,0c-0.34,0-0.656,0.023-0.949,0.07c-0.328,0.094-0.615,0.211-0.861,0.352
		c-0.48,0.34-0.938,0.727-1.371,1.16c-0.48,0.48-0.932,0.984-1.354,1.512c-0.539,0.621-1.02,1.295-1.441,2.021
		c-0.434,0.715-0.797,1.482-1.09,2.303c-0.234,0.574-0.428,1.148-0.58,1.723c-0.141,0.621-0.234,1.266-0.281,1.934
		c0.047,0.293,0.141,0.563,0.281,0.809c0.105,0.234,0.252,0.445,0.439,0.633c0.094,0.105,0.211,0.182,0.352,0.229
		c0.105,0.094,0.229,0.164,0.369,0.211c0.047,0.047,0.117,0.07,0.211,0.07c0.047,0,0.094,0,0.141,0s0.1,0,0.158,0h0.07
		c0.328,0,0.662-0.07,1.002-0.211c0.293-0.094,0.557-0.24,0.791-0.439c0.727-0.527,1.377-1.102,1.951-1.723s1.125-1.271,1.652-1.951
		c0.188-0.281,0.381-0.568,0.58-0.861c0.141-0.281,0.281-0.568,0.422-0.861l4.605-7.488h1.67l-3.252,9.721
		c-0.094,0.387-0.164,0.744-0.211,1.072c-0.094,0.34-0.141,0.703-0.141,1.09v0.07v0.07v0.07c0,0.047,0,0.094,0,0.141
		c0,0.199,0.023,0.393,0.07,0.58c0.047,0.246,0.094,0.463,0.141,0.65l1.23-0.07l4.025-3.234h0.721
		c-0.094,0.48-0.264,0.885-0.51,1.213c-0.234,0.387-0.521,0.727-0.861,1.02c-0.527,0.48-1.078,0.932-1.652,1.354
		c-0.621,0.48-1.271,0.891-1.951,1.23c-0.094,0.047-0.188,0.07-0.281,0.07c-0.141,0.047-0.258,0.07-0.352,0.07
		c-0.152,0.047-0.275,0.07-0.369,0.07c-0.141,0-0.258,0-0.352,0c-0.152,0-0.299,0-0.439,0s-0.258-0.023-0.352-0.07
		c-0.246,0-0.463-0.023-0.65-0.07c-0.246-0.047-0.439-0.164-0.58-0.352c-0.141-0.199-0.234-0.393-0.281-0.58
		c-0.105-0.199-0.182-0.393-0.229-0.58c0.047-0.715,0.123-1.436,0.229-2.162c0.094-0.668,0.211-1.336,0.352-2.004
		c0.094-0.34,0.188-0.656,0.281-0.949c0.105-0.234,0.205-0.498,0.299-0.791c0.047-0.141,0.117-0.281,0.211-0.422
		c0.047-0.152,0.094-0.299,0.141-0.439c-0.762,1.195-1.576,2.326-2.443,3.393c-0.914,1.102-1.828,2.133-2.742,3.094
		c-0.48,0.434-0.984,0.791-1.512,1.072c-0.574,0.34-1.148,0.58-1.723,0.721c-0.234,0.094-0.451,0.141-0.65,0.141
		c-0.234,0-0.451,0-0.65,0c-0.094,0-0.188,0-0.281,0s-0.164,0-0.211,0c-0.293-0.047-0.557-0.141-0.791-0.281
		c-0.293-0.094-0.533-0.24-0.721-0.439c-0.246-0.234-0.439-0.521-0.58-0.861c-0.141-0.281-0.24-0.592-0.299-0.932
		c0-0.047,0-0.094,0-0.141s0-0.094,0-0.141v-0.088c0-0.047,0-0.094,0-0.141c0-0.434,0.053-0.861,0.158-1.283
		c0.047-0.434,0.141-0.867,0.281-1.301c0.234-0.773,0.545-1.518,0.932-2.232c0.34-0.727,0.75-1.4,1.23-2.021
		c0.527-0.715,1.125-1.389,1.793-2.021c0.633-0.621,1.283-1.219,1.951-1.793c0.527-0.387,1.078-0.697,1.652-0.932
		c0.527-0.246,1.102-0.439,1.723-0.58c0.199-0.047,0.393-0.094,0.58-0.141c0.141-0.047,0.311-0.07,0.51-0.07
		c0.141-0.047,0.311-0.07,0.51-0.07c0.141,0,0.305,0,0.492,0c0.34,0,0.68,0,1.02,0c0.281,0.047,0.568,0.117,0.861,0.211V36.152z"/>
	<path fill="#007259" d="M141.123,35.783c0.329,0.047,0.639,0.123,0.933,0.229c0.293,0.141,0.533,0.328,0.721,0.563
		c0.234,0.246,0.448,0.513,0.642,0.8c0.193,0.287,0.337,0.624,0.431,1.011c-0.422,1.77-0.927,3.545-1.513,5.326
		c-0.575,1.77-1.267,3.498-2.076,5.186l-0.07,0.721c0.094,0.094,0.188,0.164,0.281,0.211c0.094,0.047,0.211,0.07,0.352,0.07
		c0.105,0.047,0.206,0.07,0.299,0.07s0.188,0,0.281,0s0.217,0,0.37,0c0.094,0,0.164-0.023,0.211-0.07
		c0.387-0.188,0.768-0.404,1.144-0.65c0.34-0.234,0.657-0.498,0.95-0.791c0.434-0.387,0.862-0.791,1.284-1.213
		c0.387-0.387,0.75-0.82,1.091-1.301l0.141,0.65c-0.34,0.621-0.701,1.195-1.082,1.723c-0.381,0.527-0.813,1.008-1.293,1.441
		c-0.481,0.387-0.985,0.724-1.513,1.011s-1.056,0.501-1.583,0.642c-0.199,0.094-0.37,0.141-0.51,0.141
		c-0.188,0.047-0.358,0.07-0.51,0.07c-0.141,0-0.282-0.023-0.422-0.07c-0.141,0-0.288-0.047-0.44-0.141
		c-0.234-0.047-0.452-0.141-0.651-0.281c-0.188-0.141-0.328-0.334-0.422-0.58c-0.047-0.094-0.07-0.188-0.07-0.281
		c-0.047-0.047-0.094-0.123-0.141-0.229c-0.059-0.141-0.088-0.305-0.088-0.492c-0.047-0.152-0.07-0.322-0.07-0.51v-0.07v-0.07
		c0-0.047,0-0.094,0-0.141c0-0.246,0.053-0.51,0.158-0.791c0.046-0.246,0.141-0.463,0.281-0.65l2.886-7.418
		c0.141-0.199,0.258-0.416,0.352-0.65c0.047-0.246,0.07-0.51,0.07-0.791c0-0.047,0-0.094,0-0.141v-0.07
		c0-0.246-0.047-0.463-0.141-0.65c-0.141-0.199-0.311-0.369-0.51-0.51l-0.141-0.211c-0.575,0.234-1.103,0.498-1.583,0.791
		c-0.528,0.281-0.985,0.615-1.373,1.002c-0.234,0.246-0.452,0.486-0.651,0.721c-0.234,0.293-0.446,0.58-0.633,0.861L129.37,51.27
		h-1.935l4.029-14.607l2.886-0.65l-3.026,10.441l5.824-8.367c0.246-0.328,0.54-0.639,0.88-0.932
		c0.281-0.281,0.592-0.521,0.932-0.721c0.387-0.188,0.769-0.328,1.144-0.422c0.34-0.105,0.68-0.158,1.021-0.158V35.783z"/>
	<path fill="#007259" d="M158.829,35.941c0.047,0.047,0.094,0.07,0.141,0.07h0.07h0.07h0.088c0.141,0,0.305,0,0.492,0
		c0.152,0.047,0.322,0.094,0.51,0.141s0.381,0.094,0.58,0.141c0.141,0.094,0.281,0.188,0.422,0.281
		c0.387,0.199,0.727,0.416,1.02,0.65c0.234,0.293,0.445,0.633,0.633,1.02c0.199,0.375,0.346,0.779,0.439,1.213
		s0.141,0.867,0.141,1.301v0.07v0.07v0.07c0,0.047,0,0.094,0,0.141c-0.047,0.68-0.141,1.354-0.281,2.021s-0.381,1.318-0.721,1.951
		c-0.34,0.621-0.727,1.242-1.16,1.863c-0.48,0.68-0.984,1.283-1.512,1.811c-0.434,0.434-0.914,0.841-1.441,1.222
		s-1.078,0.741-1.652,1.081c-0.281,0.141-0.592,0.234-0.932,0.281c-0.387,0.094-0.773,0.141-1.16,0.141
		c-0.141,0.047-0.258,0.07-0.352,0.07c-0.141,0-0.287,0-0.439,0c-0.434,0-0.838-0.047-1.213-0.141
		c-0.434-0.047-0.844-0.117-1.23-0.211c-0.387-0.246-0.721-0.51-1.002-0.791c-0.293-0.293-0.533-0.627-0.721-1.002
		c-0.199-0.387-0.346-0.773-0.439-1.16s-0.141-0.797-0.141-1.23c0.047-0.715,0.141-1.436,0.281-2.162
		c0.152-0.668,0.393-1.336,0.721-2.004c0.34-0.68,0.727-1.33,1.16-1.951c0.434-0.574,0.914-1.125,1.441-1.652
		c0.48-0.48,0.984-0.914,1.512-1.301s1.078-0.744,1.652-1.072c0.434-0.246,0.914-0.439,1.441-0.58
		c0.48-0.141,1.008-0.234,1.582-0.281V35.941z M157.599,37.014c-0.047,0.047-0.094,0.094-0.141,0.141
		c-0.094,0.047-0.164,0.07-0.211,0.07c-0.141,0.047-0.264,0.094-0.369,0.141c-0.141,0.059-0.258,0.135-0.352,0.229
		c-0.48,0.387-0.938,0.817-1.371,1.292s-0.814,1.005-1.143,1.591c-0.387,0.621-0.727,1.266-1.02,1.934
		c-0.328,0.68-0.592,1.354-0.791,2.021c-0.188,0.621-0.328,1.266-0.422,1.934c-0.105,0.727-0.158,1.424-0.158,2.092
		c0,0.246,0.026,0.489,0.079,0.729s0.149,0.478,0.29,0.712c0.188,0.246,0.401,0.463,0.642,0.65s0.53,0.334,0.87,0.439
		c0.094,0.047,0.211,0.07,0.352,0.07c0.105,0,0.205,0,0.299,0c0.188,0,0.404-0.023,0.65-0.07c0.188-0.047,0.375-0.1,0.563-0.158
		c0.387-0.141,0.727-0.328,1.02-0.563c0.281-0.246,0.545-0.533,0.791-0.861c0.48-0.48,0.914-1.014,1.301-1.6
		c0.328-0.527,0.639-1.102,0.932-1.723c0.387-0.961,0.721-1.945,1.002-2.953c0.246-0.961,0.463-1.945,0.65-2.953v-0.07v-0.07
		c0-0.047,0-0.094,0-0.141c0-0.246-0.023-0.51-0.07-0.791c-0.094-0.246-0.217-0.463-0.369-0.65
		c-0.141-0.293-0.305-0.557-0.492-0.791c-0.246-0.199-0.486-0.369-0.721-0.51c-0.047-0.047-0.117-0.094-0.211-0.141
		c-0.105,0-0.182,0-0.229,0c-0.094,0-0.164,0-0.211,0c-0.094,0-0.188,0-0.281,0c-0.152,0-0.299,0-0.439,0s-0.287,0.023-0.439,0.07
		V37.014z"/>
	<path fill="#007259" d="M179.637,35.783c0.329,0.047,0.639,0.123,0.933,0.229c0.293,0.141,0.533,0.328,0.721,0.563
		c0.234,0.246,0.448,0.513,0.642,0.8c0.193,0.287,0.337,0.624,0.431,1.011c-0.422,1.77-0.927,3.545-1.513,5.326
		c-0.575,1.77-1.267,3.498-2.076,5.186l-0.07,0.721c0.094,0.094,0.188,0.164,0.281,0.211c0.094,0.047,0.211,0.07,0.352,0.07
		c0.105,0.047,0.206,0.07,0.299,0.07s0.188,0,0.281,0s0.217,0,0.37,0c0.094,0,0.164-0.023,0.211-0.07
		c0.387-0.188,0.768-0.404,1.144-0.65c0.34-0.234,0.657-0.498,0.95-0.791c0.434-0.387,0.862-0.791,1.284-1.213
		c0.387-0.387,0.75-0.82,1.091-1.301l0.141,0.65c-0.34,0.621-0.701,1.195-1.082,1.723c-0.381,0.527-0.813,1.008-1.293,1.441
		c-0.481,0.387-0.985,0.724-1.513,1.011s-1.056,0.501-1.583,0.642c-0.199,0.094-0.37,0.141-0.51,0.141
		c-0.188,0.047-0.358,0.07-0.51,0.07c-0.141,0-0.282-0.023-0.422-0.07c-0.141,0-0.288-0.047-0.44-0.141
		c-0.234-0.047-0.452-0.141-0.651-0.281c-0.188-0.141-0.328-0.334-0.422-0.58c-0.047-0.094-0.07-0.188-0.07-0.281
		c-0.047-0.047-0.094-0.123-0.141-0.229c-0.059-0.141-0.088-0.305-0.088-0.492c-0.047-0.152-0.07-0.322-0.07-0.51v-0.07v-0.07
		c0-0.047,0-0.094,0-0.141c0-0.246,0.053-0.51,0.158-0.791c0.046-0.246,0.141-0.463,0.281-0.65l2.886-7.418
		c0.141-0.199,0.258-0.416,0.352-0.65c0.047-0.246,0.07-0.51,0.07-0.791c0-0.047,0-0.094,0-0.141v-0.07
		c0-0.246-0.047-0.463-0.141-0.65c-0.141-0.199-0.311-0.369-0.51-0.51l-0.141-0.211c-0.575,0.234-1.103,0.498-1.583,0.791
		c-0.528,0.281-0.985,0.615-1.373,1.002c-0.234,0.246-0.452,0.486-0.651,0.721c-0.234,0.293-0.446,0.58-0.633,0.861l-7.144,11.021
		h-1.935l4.029-14.607l2.886-0.65l-3.026,10.441l5.824-8.367c0.246-0.328,0.54-0.639,0.88-0.932
		c0.281-0.281,0.592-0.521,0.932-0.721c0.387-0.188,0.769-0.328,1.144-0.422c0.34-0.105,0.68-0.158,1.021-0.158V35.783z"/>
</g>
<g id="Letter_i_1_">
	<path fill="#007259" d="M41.152,36.271l-3.655,12.25v0.791c0.233,0.152,0.449,0.252,0.647,0.299c0.141,0.047,0.304,0.07,0.489,0.07
		c0.059,0,0.111,0,0.157,0h0.07c0.326-0.094,0.609-0.236,0.848-0.43c0.24-0.193,0.459-0.414,0.656-0.66
		c0.479-0.375,0.903-0.826,1.276-1.354c0.385-0.48,0.77-0.984,1.154-1.512c0.047,0.143,0.093,0.283,0.14,0.424
		c0,0.143,0,0.266,0,0.371c0,0.094,0,0.164,0,0.211c0,0.096-0.023,0.189-0.07,0.283c-0.187,0.342-0.402,0.652-0.646,0.936
		c-0.28,0.342-0.589,0.635-0.927,0.881c-0.524,0.625-1.119,1.178-1.784,1.66c-0.723,0.482-1.463,0.887-2.221,1.217h-0.07
		c-0.058,0-0.11,0-0.157,0c-0.046,0-0.093,0-0.14,0c-0.186,0-0.354-0.023-0.507-0.07c-0.186,0-0.349-0.047-0.489-0.141
		c-0.244-0.047-0.46-0.188-0.647-0.424c-0.186-0.199-0.309-0.416-0.367-0.65c0-0.094,0-0.172,0-0.23
		c-0.046-0.047-0.069-0.117-0.069-0.211c-0.047-0.047-0.07-0.117-0.07-0.211c0-0.047,0-0.094,0-0.141s0-0.096,0-0.143
		c0-0.059,0-0.111,0-0.158c0.047-0.047,0.07-0.094,0.07-0.141s0-0.094,0-0.141c0.432-2.068,0.956-4.135,1.573-6.203
		c0.584-2.021,1.277-4.018,2.081-5.992L41.152,36.271z"/>
	<g>
		<path fill="#FF9C00" d="M39.579,30.391c1,0.49,3.391,0.422,4.232,0.031c0.395-0.184-0.225-2.047-0.561-1.387
			c-0.035-0.641-0.398-1.305-0.664-0.879c0.025-0.553-0.373-1.229-0.709-0.732c-0.213-0.766-0.646-0.773-0.83-0.039
			c-0.201-0.268-0.646-0.031-0.67,0.791c-0.262-0.432-0.572,0.275-0.611,0.818C39.547,28.436,38.999,30.105,39.579,30.391z"/>
		<path fill="#C9007A" d="M44.817,30.232c1.236-0.811,5.27-0.402,5.75,0.854c0.293,0.762-1.211,1.17-2.041,0.598
			C45.989,29.941,44.323,30.557,44.817,30.232z"/>
		<path fill="#C9007A" d="M43.971,30.893c1.479,0.008,4.615,2.572,4.324,3.887c-0.176,0.797-1.656,0.307-2.033-0.629
			C45.11,31.297,43.379,30.889,43.971,30.893z"/>
		<path fill="#C9007A" d="M41.959,31.063c1.322,0.658,3.012,4.342,2.17,5.395c-0.51,0.637-1.621-0.453-1.549-1.461
			C42.801,31.928,41.428,30.799,41.959,31.063z"/>
		<path fill="#C9007A" d="M38.737,30.283c-1.357-0.586-5.26,0.504-5.52,1.824c-0.158,0.803,1.393,0.947,2.113,0.242
			C37.532,30.197,39.28,30.516,38.737,30.283z"/>
		<path fill="#C9007A" d="M39.809,31.023c-1.465,0.203-4.232,3.162-3.768,4.428c0.281,0.768,1.682,0.084,1.932-0.895
			C38.735,31.576,40.395,30.941,39.809,31.023z"/>
	</g>
</g>
<g>
	<g>
		<path fill="#007259" d="M52.025,2.216c3.158-2.502,8.717-2.098,10.238,1.447c-0.74-0.178-0.896-0.15-1.439-0.1
			C62.576,4.858,66,9.013,60.895,15.319c-0.789-1.609-2.908-0.727-4.771-1.09c-1.938-0.381-4.377-1.967-4.898-4.164
			c-0.327,0.221-0.53,0.795-0.724,1.678c-0.836-0.973-2.827-6.24-0.174-8.127c-1.252,2.611-0.461,5.285,0.028,6.217
			c0.388-0.713,0.902-1.016,1.374-1.217c0.034,2.75,3.341,4.973,5.45,4.928c1.692-0.037,3.53,0.35,3.768,0.742
			c4.622-6.891-1.148-10.68-1.705-10.955c0.58-0.32,1.368-0.525,1.859-0.418C58.849,0.423,54.866,0.942,52.025,2.216z"/>
	</g>
	<path fill="#007259" d="M46.219,2.905C33.063,3.079,17.984,17.772,31.313,13.022c5.561-1.98,7.806-5.971,8.099-6.357
		c0.234-0.326,0.45-0.684,0.649-1.07c0.047-0.141,0.094-0.287,0.141-0.439c0-0.139,0-0.279,0-0.42c0-0.094-0.07-0.627-0.07-0.721
		c-0.047-0.092-0.094-0.162-0.141-0.209c-0.047-0.293-0.17-0.557-0.369-0.791c-0.188-0.244-0.403-0.461-0.649-0.648
		C38.55,2.12,38.1,1.903,37.62,1.716c-0.527-0.139-1.06-0.238-1.598-0.297c-0.761,0-1.504,0.053-2.229,0.158
		c-0.714,0.141-1.428,0.328-2.142,0.563c-1.533,0.48-3.02,1.059-4.459,1.738c-1.486,0.668-2.902,1.482-4.248,2.441
		c-2.201,1.488-4.261,3.146-6.18,4.973c-1.967,1.814-3.739,3.807-5.318,5.973c-0.586,0.809-1.142,1.621-1.668,2.441
		c-0.527,0.867-1.054,1.705-1.58,2.512c-0.668,1.207-1.288,2.408-1.86,3.602c-0.574,1.254-1.101,2.502-1.58,3.742
		c-0.387,1.195-0.703,2.396-0.948,3.602c-0.281,1.195-0.544,2.418-0.79,3.672c0,0.809,0.076,1.621,0.229,2.441
		c0.093,0.82,0.233,1.635,0.421,2.441c0.246,0.68,0.509,1.33,0.79,1.951c0.292,0.668,0.632,1.311,1.019,1.932
		c0.374,0.527,0.801,1.008,1.281,1.441c0.433,0.48,0.912,0.912,1.439,1.299c0.526,0.34,1.103,0.631,1.729,0.871
		s1.249,0.406,1.87,0.5c0.667,0.141,1.363,0.234,2.089,0.281c0.667,0.094,1.34,0.141,2.019,0.141c0.188,0,0.375,0,0.563,0
		c0.198,0,0.392-0.023,0.579-0.07c0.141,0,0.31-0.023,0.509-0.07c0.188,0,0.381,0,0.58,0c1.486-0.188,2.943-0.498,4.371-0.932
		c1.393-0.387,2.738-0.891,4.037-1.512c0.713-0.34,1.409-0.697,2.089-1.072c0.667-0.34,1.311-0.703,1.932-1.09l0.368,0.508
		l-7.127,3.729c-1.241,0.525-2.511,0.93-3.81,1.209c-1.3,0.34-2.64,0.531-4.021,0.578c-0.34,0.047-0.679,0.07-1.018,0.07
		c-0.375,0-0.756,0-1.142,0c-0.819,0-1.609-0.047-2.369-0.141c-0.819-0.047-1.639-0.117-2.458-0.211
		c-0.621-0.141-1.241-0.357-1.861-0.65c-0.62-0.246-1.193-0.533-1.72-0.861c-0.586-0.385-1.089-0.795-1.51-1.229
		c-0.48-0.434-0.866-0.914-1.159-1.441c-0.433-0.621-0.818-1.264-1.158-1.932c-0.328-0.633-0.591-1.307-0.79-2.021
		c-0.234-0.818-0.421-1.656-0.562-2.512C0.076,39.665,0,38.821,0,37.954c0.047-1.146,0.146-2.295,0.299-3.443
		c0.141-1.158,0.356-2.313,0.649-3.461l2.721-7.344c0.959-1.768,2.039-3.469,3.238-5.102c1.199-1.635,2.496-3.195,3.889-4.682
		c1.146-1.148,2.347-2.271,3.6-3.373c1.193-1.055,2.41-2.113,3.651-3.18c1.486-1.008,3.024-1.939,4.616-2.795
		c1.58-0.865,3.184-1.609,4.811-2.23c1.053-0.434,2.13-0.795,3.23-1.088c1.111-0.281,3.317-0.65,3.317-0.65c0.234,0,1.123,0,1.369,0
		c0.421,0,0.849,0.029,1.282,0.088c0.433,0.047,0.865,0.117,1.299,0.211c0.386,0.047,0.769,0.166,1.149,0.359
		c0.38,0.193,0.717,0.432,1.01,0.711c0.339,0.293,0.626,0.633,0.86,1.02c0.187,0.375,0.333,0.756,0.438,1.143
		c0.047,0.141,0.07,0.287,0.07,0.439c0,0.141,0,0.281,0,0.422c0,0.293-0.023,0.582-0.07,0.869s-0.123,0.547-0.229,0.781
		c-0.188,0.633-0.592,1.221-0.931,1.748c-0.328,0.574-2.687,3.043-5.146,4.543c-1.786,1.09-3.854,2.063-6.917,2.479
		C16.882,16.962,31.146,1.524,47.104,1.921c1.219,0.029,1.787,0.006,3.071,0.148c2.659,0.309,9.555,2.164,9.841,9.078
		c-1.152-6.904-8.246-8.199-10.688-8.227C47.713,2.903,47.557,2.888,46.219,2.905z"/>
</g>
</svg>
