<?xml version="1.0" encoding="UTF-8" standalone="no"?>
<!-- Created with Inkscape (http://www.inkscape.org/) -->

<svg
   xmlns:dc="http://purl.org/dc/elements/1.1/"
   xmlns:cc="http://creativecommons.org/ns#"
   xmlns:rdf="http://www.w3.org/1999/02/22-rdf-syntax-ns#"
   xmlns:svg="http://www.w3.org/2000/svg"
   xmlns="http://www.w3.org/2000/svg"
   xmlns:xlink="http://www.w3.org/1999/xlink"
   xmlns:sodipodi="http://sodipodi.sourceforge.net/DTD/sodipodi-0.dtd"
   xmlns:inkscape="http://www.inkscape.org/namespaces/inkscape"
   width="447.60889pt"
   height="103.23643pt"
   viewBox="0 0 559.51114 129.04553"
   id="svg4220"
   version="1.1"
   inkscape:version="0.91 r13725"
   sodipodi:docname="floral-swirls.svg">
  <defs
     id="defs4222">
    <inkscape:path-effect
       effect="spiro"
       id="path-effect4276"
       is_visible="true" />
    <inkscape:path-effect
       is_visible="true"
       id="path-effect4274"
       effect="spiro" />
    <inkscape:path-effect
       pattern-nodetypes="cccccc"
       fuse_tolerance="0"
       vertical_pattern="false"
       prop_units="false"
       tang_offset="0"
       normal_offset="0"
       spacing="0"
       scale_y_rel="false"
       prop_scale="0.25"
       copytype="single_stretched"
       pattern="m 159.9966,152.00931 -45,-5 -85.000011,0 c 0.36872,6.0065 0.36872,6.0065 0,10.00001 l 90.000011,0 40,-5.00001"
       is_visible="true"
       id="path-effect4272"
       effect="skeletal" />
    <inkscape:path-effect
       is_visible="true"
       id="path-effect4270"
       effect="spiro" />
    <inkscape:path-effect
       fuse_tolerance="0"
       vertical_pattern="false"
       prop_units="false"
       tang_offset="0"
       normal_offset="0"
       spacing="0"
       scale_y_rel="false"
       prop_scale="0.3"
       copytype="single_stretched"
       pattern="M 163.49999,48.750001 118.5,43.750005 l -84.99999,0 -40.0000103,4.999996 40.0000103,5 89.99999,0 39.99999,-5"
       is_visible="true"
       id="path-effect4247"
       effect="skeletal" />
    <inkscape:path-effect
       is_visible="true"
       id="path-effect4245"
       effect="spiro" />
    <inkscape:path-effect
       effect="skeletal"
       id="path-effect4243"
       is_visible="true"
       pattern="M 163.74999,45.500001 118.75,40.500005 l -84.99999,0 -40.0000103,4.999996 40.0000103,5 89.99999,0 39.99999,-5"
       copytype="single_stretched"
       prop_scale="0.3"
       scale_y_rel="false"
       spacing="0"
       normal_offset="0"
       tang_offset="0"
       prop_units="false"
       vertical_pattern="false"
       fuse_tolerance="0" />
    <inkscape:path-effect
       effect="spiro"
       id="path-effect4241"
       is_visible="true" />
    <inkscape:path-effect
       fuse_tolerance="0"
       vertical_pattern="false"
       prop_units="false"
       tang_offset="0"
       normal_offset="0"
       spacing="0"
       scale_y_rel="false"
       prop_scale="0.3"
       copytype="single_stretched"
       pattern="M 162.24999,3.499996 117.25,-1.5 l -84.99999,0 -40.0000105,4.999996 40.0000105,5 89.99999,0 39.99999,-5"
       is_visible="true"
       id="path-effect4239"
       effect="skeletal" />
    <inkscape:path-effect
       is_visible="true"
       id="path-effect4237"
       effect="spiro" />
    <inkscape:path-effect
       effect="skeletal"
       id="path-effect4230"
       is_visible="true"
       pattern="M 169.99999,4.999996 125,0 40.00001,0 0,4.999996 l 40.00001,5 89.99999,0 39.99999,-5"
       copytype="single_stretched"
       prop_scale="0.3"
       scale_y_rel="false"
       spacing="0"
       normal_offset="0"
       tang_offset="0"
       prop_units="false"
       vertical_pattern="false"
       fuse_tolerance="0" />
    <inkscape:path-effect
       effect="spiro"
       id="path-effect4217"
       is_visible="true" />
    <inkscape:path-effect
       effect="spiro"
       id="path-effect4202"
       is_visible="true" />
    <inkscape:path-effect
       effect="skeletal"
       id="path-effect4200"
       is_visible="true"
       pattern="m 130.24999,5.5 -44.999992,-5 -84.99999799,0 c 0.368726,6.006493 0.368726,6.006493 0,10 l 89.99999799,0 39.999992,-5"
       copytype="single_stretched"
       prop_scale="0.25"
       scale_y_rel="false"
       spacing="0"
       normal_offset="0"
       tang_offset="0"
       prop_units="false"
       vertical_pattern="false"
       fuse_tolerance="0" />
    <inkscape:path-effect
       effect="spiro"
       id="path-effect4198"
       is_visible="true" />
    <inkscape:path-effect
       is_visible="true"
       id="path-effect4196"
       effect="spiro" />
    <inkscape:path-effect
       effect="spiro"
       id="path-effect4194"
       is_visible="true" />
    <inkscape:path-effect
       is_visible="true"
       id="path-effect4190"
       effect="spiro" />
    <inkscape:path-effect
       effect="skeletal"
       id="path-effect4187"
       is_visible="true"
       pattern="m 177.67593,103.84651 -44.99999,-4.999996 -84.999987,0 -40.0000097,4.999996 40.0000097,5 89.999987,0 39.99999,-5"
       copytype="single_stretched"
       prop_scale="0.5"
       scale_y_rel="false"
       spacing="0"
       normal_offset="0"
       tang_offset="0"
       prop_units="false"
       vertical_pattern="false"
       fuse_tolerance="0" />
    <inkscape:path-effect
       is_visible="true"
       id="path-effect4185"
       effect="spiro" />
    <inkscape:path-effect
       effect="skeletal"
       id="path-effect4292"
       is_visible="true"
       pattern="m 193.68591,48.428783 -44.99999,-5 -85.000004,0 c 0.368726,6.006493 0.368726,6.006493 0,10 l 90.000004,0 39.99999,-5"
       copytype="single_stretched"
       prop_scale="0.25"
       scale_y_rel="false"
       spacing="0"
       normal_offset="0"
       tang_offset="0"
       prop_units="false"
       vertical_pattern="false"
       fuse_tolerance="0"
       pattern-nodetypes="cccccc" />
    <inkscape:path-effect
       effect="spiro"
       id="path-effect4290"
       is_visible="true" />
    <inkscape:path-effect
       fuse_tolerance="0"
       vertical_pattern="false"
       prop_units="false"
       tang_offset="0"
       normal_offset="0"
       spacing="0"
       scale_y_rel="false"
       prop_scale="0.25"
       copytype="single_stretched"
       pattern="M 129.99999,5 84.999998,0 0,0 c 0.368726,6.006493 0.368726,6.006493 0,10 l 89.999998,0 39.999992,-5"
       is_visible="true"
       id="path-effect4252"
       effect="skeletal" />
    <inkscape:path-effect
       is_visible="true"
       id="path-effect4250"
       effect="spiro" />
    <inkscape:path-effect
       fuse_tolerance="0"
       vertical_pattern="false"
       prop_units="false"
       tang_offset="0"
       normal_offset="0"
       spacing="0"
       scale_y_rel="false"
       prop_scale="0.3"
       copytype="single_stretched"
       pattern="m 180.39036,40.864735 -44.99999,-5 -84.999988,0 -40.000007,5 40.000007,5 89.999988,0 39.99999,-5"
       is_visible="true"
       id="path-effect4226"
       effect="skeletal" />
    <inkscape:path-effect
       effect="spiro"
       id="path-effect4224"
       is_visible="true" />
    <inkscape:path-effect
       fuse_tolerance="0"
       vertical_pattern="false"
       prop_units="false"
       tang_offset="0"
       normal_offset="0"
       spacing="0"
       scale_y_rel="false"
       prop_scale="0.5"
       copytype="single_stretched"
       pattern="m 180.39036,40.864735 -44.99999,-5 -84.999988,0 -40.000007,5 40.000007,5 89.999988,0 39.99999,-5"
       is_visible="true"
       id="path-effect4222"
       effect="skeletal" />
    <inkscape:path-effect
       effect="spiro"
       id="path-effect4220"
       is_visible="true" />
    <inkscape:path-effect
       effect="spiro"
       id="path-effect4218"
       is_visible="true" />
    <inkscape:path-effect
       is_visible="true"
       id="path-effect4216"
       effect="spiro" />
    <inkscape:path-effect
       effect="spiro"
       id="path-effect4220-5"
       is_visible="true" />
    <inkscape:path-effect
       fuse_tolerance="0"
       vertical_pattern="false"
       prop_units="false"
       tang_offset="0"
       normal_offset="0"
       spacing="0"
       scale_y_rel="false"
       prop_scale="0.5"
       copytype="single_stretched"
       pattern="m 170.60479,-21.867044 -44.99999,-5 -84.999985,0 -40.00000728,5 40.00000728,5 89.999985,0 39.99999,-5"
       is_visible="true"
       id="path-effect4222-9"
       effect="skeletal" />
    <inkscape:path-effect
       effect="spiro"
       id="path-effect4290-4"
       is_visible="true" />
    <inkscape:path-effect
       effect="skeletal"
       id="path-effect4292-8"
       is_visible="true"
       pattern="m 71.125228,-47.401743 -44.99999,-5 -85.000004,0 c 0.368726,6.006493 0.368726,6.006493 0,10 l 90.000004,0 39.99999,-5"
       copytype="single_stretched"
       prop_scale="0.25"
       scale_y_rel="false"
       spacing="0"
       normal_offset="0"
       tang_offset="0"
       prop_units="false"
       vertical_pattern="false"
       fuse_tolerance="0"
       pattern-nodetypes="cccccc" />
  </defs>
  <sodipodi:namedview
     id="base"
     pagecolor="#ffffff"
     bordercolor="#666666"
     borderopacity="1.0"
     inkscape:pageopacity="0.0"
     inkscape:pageshadow="2"
     inkscape:zoom="1.4142136"
     inkscape:cx="314.05147"
     inkscape:cy="-72.339844"
     inkscape:document-units="px"
     inkscape:current-layer="svg4220"
     showgrid="false"
     units="pt"
     inkscape:window-width="1920"
     inkscape:window-height="1018"
     inkscape:window-x="-8"
     inkscape:window-y="-8"
     inkscape:window-maximized="1"
     showguides="true"
     inkscape:guide-bbox="true"
     fit-margin-top="0"
     fit-margin-left="0"
     fit-margin-right="0"
     fit-margin-bottom="0">
    <sodipodi:guide
       position="279.61163,72.654157"
       orientation="1,0"
       id="guide4160" />
    <inkscape:grid
       type="xygrid"
       id="grid4162"
       originx="154.80771"
       originy="0.17486172" />
  </sodipodi:namedview>
  <metadata
     id="metadata4225">
    <rdf:RDF>
      <cc:Work
         rdf:about="">
        <dc:format>image/svg+xml</dc:format>
        <dc:type
           rdf:resource="http://purl.org/dc/dcmitype/StillImage" />
        <dc:title></dc:title>
      </cc:Work>
    </rdf:RDF>
  </metadata>
  <g
     inkscape:label="flower (original)"
     inkscape:groupmode="layer"
     id="flower"
     style="display:none"
     transform="translate(36.722038,-0.37081381)">
    <g
       id="petals">
      <path
         sodipodi:nodetypes="csc"
         inkscape:connector-curvature="0"
         id="back-petal1"
         d="m 242.66812,67.850121 c -23.26635,-5.44533 -76.06269,-41.56398 -56.05802,-50.06306 17.95027,-7.6266 49.41586,42.05022 56.05802,50.06306 z"
         style="fill:#f194be;fill-opacity:0.66666667;fill-rule:evenodd;stroke:none;stroke-width:1px;stroke-linecap:butt;stroke-linejoin:miter;stroke-opacity:1" />
      <path
         sodipodi:nodetypes="csc"
         inkscape:connector-curvature="0"
         id="back-petal2"
         d="m 243.05099,68.196421 c -21.44678,-11.96292 -51.7913,-62.4987 -30.72846,-63.78487 25.78975,-1.57498 27.05586,54.11153 30.72846,63.78487 z"
         style="fill:#f194be;fill-opacity:0.66666667;fill-rule:evenodd;stroke:none;stroke-width:1px;stroke-linecap:butt;stroke-linejoin:miter;stroke-opacity:1" />
      <path
         sodipodi:nodetypes="csc"
         inkscape:connector-curvature="0"
         id="back-petal3"
         d="m 244.33908,67.645921 c -11.61183,-15.10077 -20.21754,-73.47082 2.40414,-66.73664 21.68284,6.45474 4.039,54.0815 -2.40414,66.73664 z"
         style="fill:#f194be;fill-opacity:0.66666667;fill-rule:evenodd;stroke:none;stroke-width:1px;stroke-linecap:butt;stroke-linejoin:miter;stroke-opacity:1" />
      <path
         sodipodi:nodetypes="csc"
         inkscape:connector-curvature="0"
         id="back-petal4"
         d="m 241.80285,67.625421 c 23.74122,-10.83648 59.09696,-58.3459 35.79204,-59.64175 -23.3049,-1.29585 -31.72655,50.87923 -35.79204,59.64175 z"
         style="fill:#f194be;fill-opacity:0.66666667;fill-rule:evenodd;stroke:none;stroke-width:1px;stroke-linecap:butt;stroke-linejoin:miter;stroke-opacity:1" />
      <path
         sodipodi:nodetypes="csc"
         inkscape:connector-curvature="0"
         id="back-petal5"
         d="m 242.82846,68.358421 c 31.89745,-8.99291 83.538,-46.55589 52.22667,-47.63128 -31.31125,-1.07538 -46.76448,40.35942 -52.22667,47.63128 z"
         style="fill:#f194be;fill-opacity:0.66666667;fill-rule:evenodd;stroke:none;stroke-width:1px;stroke-linecap:butt;stroke-linejoin:miter;stroke-opacity:1" />
      <path
         sodipodi:nodetypes="csc"
         inkscape:connector-curvature="0"
         id="front-petal1"
         d="m 243.84125,67.986721 c -24.82331,0.6841 -82.17251,-26.44344 -64.01327,-37.61193 18.15909,-11.16849 56.16923,31.65319 64.01327,37.61193 z"
         style="fill:#eb65a1;fill-opacity:0.66666667;fill-rule:evenodd;stroke:none;stroke-width:1px;stroke-linecap:butt;stroke-linejoin:miter;stroke-opacity:1" />
      <path
         sodipodi:nodetypes="ccc"
         inkscape:connector-curvature="0"
         id="front-petal2"
         d="m 243.69936,68.010621 c -21.73103,-10.65103 -50.80481,-50.26559 -27.98056,-48.21522 22.82414,2.05098 27.02786,41.08794 27.98056,48.21522 z"
         style="fill:#eb65a2;fill-opacity:0.66666667;fill-rule:evenodd;stroke:none;stroke-width:1px;stroke-linecap:butt;stroke-linejoin:miter;stroke-opacity:1" />
      <path
         sodipodi:nodetypes="ccc"
         inkscape:connector-curvature="0"
         id="front-petal3"
         d="m 243.23884,67.527421 c 19.03319,-10.41006 42.93315,-49.08049 21.71364,-47.00743 -21.21947,2.07275 -23.14555,38.89845 -21.71364,47.00743 z"
         style="fill:#eb65a2;fill-opacity:0.66666667;fill-rule:evenodd;stroke:none;stroke-width:1px;stroke-linecap:butt;stroke-linejoin:miter;stroke-opacity:1" />
      <path
         sodipodi:nodetypes="csc"
         inkscape:connector-curvature="0"
         id="front-petal4"
         d="m 242.89998,68.140121 c 29.82926,-3.31299 80.1857,-28.898642 57.96338,-36.20674 -26.70537,-8.782407 -51.75525,30.06768 -57.96338,36.20674 z"
         style="fill:#eb65a2;fill-opacity:0.66666667;fill-rule:evenodd;stroke:none;stroke-width:1px;stroke-linecap:butt;stroke-linejoin:miter;stroke-opacity:1" />
    </g>
  </g>
  <g
     inkscape:groupmode="layer"
     id="swirls"
     inkscape:label="swirls"
     transform="translate(36.722038,-0.37081381)">
    <use
       x="0"
       y="0"
       inkscape:tiled-clone-of="#swirls"
       xlink:href="#left-swirls"
       transform="matrix(-1,0,0,1,486.06707,0)"
       id="right-swirls"
       width="100%"
       height="100%" />
    <g
       style="display:inline"
       id="left-swirls"
       inkscape:tile-cx="174.34267"
       inkscape:tile-cy="130.2109"
       inkscape:tile-w="342.49216"
       inkscape:tile-h="93.030021"
       inkscape:tile-x0="3.0965947"
       inkscape:tile-y0="83.695891">
      <path
         style="fill:#007259;fill-opacity:1;fill-rule:evenodd;stroke:none;stroke-width:1px;stroke-linecap:butt;stroke-linejoin:miter;stroke-opacity:1"
         d="m -19.91434,143.9915 c -1.737434,-0.0118 -3.483768,0.75792 -4.659424,2.07764 -1.174995,1.32028 -1.757459,3.16647 -1.538549,4.95049 0.253911,2.03414 1.524961,3.8973 3.287003,4.9915 1.085841,0.67508 2.342689,1.0735 3.627404,1.15895 1.284464,0.0851 2.588139,-0.13968 3.781523,-0.64269 2.387227,-1.01132 4.259486,-3.12038 5.071724,-5.61104 0.9815303,-3.0195 0.3862351,-6.5038 -1.598525,-9.05844 -1.979973,-2.54773 -5.234134,-4.02301 -8.501461,-3.80182 -2.593638,-0.10424 -5.211777,0.48904 -7.522942,1.71841 0,0 -3e-6,0 -3e-6,0 -2.330038,1.2312 -4.328935,3.08404 -5.740804,5.33904 -1.512148,2.42199 -2.32632,5.26024 -2.359724,8.12936 -0.0275,2.48704 0.519757,4.96826 1.567577,7.2298 0.166282,0.34302 0.34408,0.6805 0.533087,1.01169 1.907731,3.31002 4.800177,5.8967 8.025442,7.714 l 7e-6,1e-5 c 3.215715,1.81738 6.707149,2.95209 10.18758,3.75404 13.4320893,3.11645 27.687044,1.87052 40.599585,-2.80012 8.725367,-3.16093 16.746614,-7.74327 24.704552,-12.13825 7.940591,-4.36902 15.928665,-8.62112 24.453956,-11.08199 l 7e-6,0 c 9.31776,-2.67069 19.510428,-3.21538 28.259005,0.44567 0.27943,0.11772 0.55746,0.23952 0.83363,0.36548 3.57539,1.53349 6.87933,3.76206 8.94572,6.90968 1.37445,2.06699 2.23004,4.51358 2.31704,6.99582 0.0887,2.47778 -0.58175,5.02209 -1.99296,7.07534 -1.69527,2.47255 -4.53431,4.2607 -7.55881,4.51215 -1.5163,0.13022 -3.07766,-0.10478 -4.48738,-0.70747 -1.409394,-0.60191 -2.676652,-1.57404 -3.607545,-2.80845 0,0 -10e-7,0 -10e-7,0 -0.867101,-1.15494 -1.453223,-2.54945 -1.511349,-3.98627 -0.03797,-0.89859 0.124328,-1.81307 0.508303,-2.62777 0.383309,-0.81396 0.989377,-1.53461 1.753069,-2.01926 10e-7,0 3e-6,0 3e-6,0 0.762563,-0.48449 1.688367,-0.73623 2.59712,-0.66179 0,0 0,0 0,0 0.90777,0.0737 1.80328,0.47687 2.43861,1.14592 0.60925,0.63994 0.97582,1.52182 0.9954,2.42037 0.0199,0.89855 -0.30756,1.81083 -0.90786,2.5 0.62948,-0.66263 1.00632,-1.57105 1.02619,-2.5 0.0196,-0.92895 -0.31813,-1.86777 -0.93867,-2.57963 -0.64855,-0.74221 -1.58662,-1.22217 -2.57658,-1.34493 0,0 0,0 0,0 -0.989253,-0.12207 -2.014386,0.10311 -2.884558,0.60615 0,0 -10e-7,0 -10e-7,0 -0.869203,0.50298 -1.578982,1.26817 -2.046344,2.16246 -0.466753,0.89366 -0.696444,1.90395 -0.695393,2.91342 0.0042,1.61278 0.573619,3.19318 1.488628,4.51373 1e-6,0 1e-6,0 1e-6,0 0.974173,1.41187 2.330328,2.55709 3.889774,3.30354 1.559183,0.74569 3.305463,1.09264 5.043463,1.01792 3.47929,-0.15811 6.8037,-2.00704 8.91303,-4.82522 0,-1e-5 0,-1e-5 0,-1e-5 1.7382,-2.32636 2.66011,-5.22289 2.67549,-8.13904 0.0136,-2.91221 -0.8379,-5.7999 -2.35141,-8.2898 -2.30594,-3.75144 -5.90017,-6.4959 -9.79576,-8.3309 -0.30683,-0.1369 -0.61528,-0.26819 -0.92489,-0.39394 -9.618534,-3.93064 -20.471868,-3.42216 -30.240999,-0.55433 l -8e-6,1e-5 c -8.913922,2.59952 -17.10622,6.93633 -25.066627,11.33612 -7.991359,4.40047 -15.869371,8.91794 -24.274848,11.94363 l -8e-6,0 c -12.415789,4.47642 -26.1043507,5.68894 -38.900407,2.69988 l -7e-6,0 c -3.313182,-0.7795 -6.537038,-1.80954 -9.384844,-3.44004 -2.837621,-1.63021 -5.355625,-3.84286 -6.902118,-6.59191 -1.171221,-2.05704 -1.827852,-4.42095 -1.837757,-6.77151 -0.0028,-0.55818 0.03048,-1.11741 0.09901,-1.67246 0.177018,-1.78565 0.718952,-3.54589 1.610194,-5.10669 1.086021,-1.90957 2.704312,-3.54844 4.627534,-4.66746 1.944456,-1.12109 4.212343,-1.73379 6.482,-1.73666 2.602634,-0.29764 5.435476,0.80376 7.170286,2.83828 1.729425,2.02674 2.399676,5.0349 1.654728,7.66268 -0.612669,2.17125 -2.181525,4.12994 -4.252636,5.0985 -1.037379,0.48795 -2.195813,0.7406 -3.350575,0.71065 -1.154442,-0.0296 -2.311565,-0.34104 -3.324807,-0.91577 -1.633753,-0.92784 -2.901659,-2.59715 -3.208373,-4.47831 -0.27295,-1.64774 0.19867,-3.43502 1.279167,-4.75246 1.079753,-1.31807 2.76156,-2.15684 4.498115,-2.2159 z"
         id="path4215"
         inkscape:connector-curvature="0"
         inkscape:path-effect="#path-effect4245;#path-effect4247"
         inkscape:original-d="m 102.58567,166.4915 c 4.99999,-5 4.99999,-5 -10e-6,-5 -5.000001,0 -7.749991,1.89298 -7.749991,4.25 0,2.35702 -0.67762,3.34801 1.49999,4.25 3.0796,1.27561 16.750001,4.25 16.750001,-0.75 0,-5 2.62866,-10.99675 0,-15.25 -1.95928,-3.17019 -5.25,-8 -10.25,-8 -5.000001,0 -29.250002,-5.5 -29.250002,-0.5 0,5 -31.623343,19.85542 -49.249999,23.25 -9.819564,1.89108 -29.7499996,2.75 -39.75,2.75 -5,0 -11.86213,-4.17786 -17.249999,-10.75 -3.169945,-3.86671 -3.535534,-11.46447 0,-15 2.357022,-2.35702 12.250001,-6.75 12.250001,-6.75 9.999999,0 9.499999,6.75 9.499999,11.75 0,5 -8.579811,6.95928 -11.75,5 -2.835503,-1.75244 -6.329599,-3.47439 -3.25,-4.75 2.177605,-0.90199 6,-7 6,-7"
         sodipodi:nodetypes="csssssssssssssssc" />
      <path
         style="fill:#007259;fill-opacity:1;fill-rule:evenodd;stroke:none;stroke-width:2.08740902px;stroke-linecap:butt;stroke-linejoin:miter;stroke-opacity:1"
         d="m 86.833085,80.115431 c 0.465777,-0.547169 1.077788,-0.959573 1.745292,-1.184668 0.667466,-0.225196 1.390815,-0.263347 2.065205,-0.115989 0.674429,0.147143 1.302318,0.48012 1.794508,0.94375 0.492404,0.463383 0.852513,1.060242 1.032179,1.697431 0,0 10e-7,10e-7 10e-7,10e-7 0.23947,0.84156 0.159818,1.763501 -0.174913,2.555474 -0.334415,0.793963 -0.932016,1.47031 -1.648202,1.93138 -0.717171,0.462585 -1.567201,0.712951 -2.415228,0.755144 -0.849479,0.04268 -1.708698,-0.129215 -2.494412,-0.457684 -1.27736,-0.533766 -2.360454,-1.51127 -3.058899,-2.681265 -0.701347,-1.171098 -1.027036,-2.562189 -0.973575,-3.910958 0.05085,-1.309353 0.465977,-2.603266 1.143003,-3.713287 0.191379,-0.314323 0.405202,-0.615042 0.638248,-0.900393 0.560834,-0.747205 1.253174,-1.405738 2.028006,-1.941524 2.146623,-1.503218 5.012692,-1.988951 7.670513,-1.546065 1.976858,0.337231 3.877769,1.184401 5.445763,2.431854 1.568686,1.246278 2.822836,2.906405 3.587616,4.756315 l 0,10e-7 c 1.32742,3.110693 1.18793,6.78865 0.53132,10.327057 -1.79669,9.297417 -7.607135,17.817385 -15.60677,22.884525 1.041664,1.12402 1.05344,1.10142 1.338786,2.11132 8.598371,-5.45768 14.780674,-14.52291 16.722344,-24.520315 0.76597,-3.803986 0.85732,-7.959182 -0.67576,-11.758774 l 0,-3e-6 c -0.93205,-2.249221 -2.43765,-4.242977 -4.34195,-5.757206 -1.905015,-1.513064 -4.184139,-2.52931 -6.580405,-2.93908 l -4e-6,10e-7 c -3.246427,-0.565657 -6.725827,0.05544 -9.51051,1.952148 -1.38658,0.953798 -2.561506,2.219983 -3.392004,3.706245 -0.485087,0.869277 -0.843323,1.808978 -1.058093,2.783763 -0.128544,0.699578 -0.183225,1.411797 -0.159578,2.12317 0.05977,1.767771 0.623254,3.496597 1.628075,4.931251 1.007962,1.435705 2.452758,2.530381 4.092118,3.081611 1.006681,0.338264 2.084821,0.461894 3.140147,0.333005 1.056863,-0.129423 2.075327,-0.525493 2.922864,-1.161848 0.84852,-0.637973 1.501327,-1.518241 1.839245,-2.512993 0,0 0,-2e-6 0,-2e-6 0.337485,-0.996787 0.336998,-2.091498 -0.01669,-3.064447 -0.268981,-0.734613 -0.735382,-1.382929 -1.331283,-1.864859 -0.596141,-0.481653 -1.315513,-0.791615 -2.058697,-0.896069 0,10e-7 -2e-6,0 -2e-6,0 -0.743229,-0.104213 -1.504361,-0.002 -2.180729,0.284638 -0.676324,0.286731 -1.264418,0.756404 -1.687531,1.337345 z"
         id="minor-upper-swirl"
         inkscape:path-effect="#path-effect4198;#path-effect4200"
         inkscape:original-d="m 88.812133,113.00219 c 10.291496,0 9.056497,-19.971929 16.164557,-23.70242 4.32795,-2.271418 -0.60354,-5.751618 -0.60354,-11.042916 0,-10.437043 0.45917,-7.942229 -9.977867,-7.942229 -10.437048,0 -23.171739,-1.103746 -12.734701,9.333305 1.633384,1.633386 1.809938,6.674195 4.826695,7.260759 2.974721,0.57839 4.716649,-5.423054 7.275255,-5.547594 7.259548,-0.353358 -5.814452,5.318335 -6.929447,-1.245664"
         inkscape:connector-curvature="0"
         sodipodi:nodetypes="cssssssc" />
      <path
         sodipodi:nodetypes="csssssc"
         inkscape:connector-curvature="0"
         inkscape:original-d="m 123.32685,103.51434 c 20.83771,1.23199 29.72395,-14.849119 29.24918,-4.747229 -0.47478,10.101879 18.78197,36.958429 7.60272,22.412319 -10.47379,-13.62819 -9.72044,1.49918 -9.27559,-1.4348 0.12974,-0.8557 0.71715,-8.74424 2.03341,-9.81145 2.12513,-1.72301 4.2966,0.9575 5.85502,2.81778 8.96664,10.70347 -4.19038,3.85269 -4.19038,3.85269"
         inkscape:path-effect="#path-effect4290;#path-effect4292"
         id="minor-lower-swirl"
         d="m 154.60121,116.60365 c 1.07794,0.31571 2.33322,0.057 3.22141,-0.70141 0.88682,-0.75989 1.37094,-1.98943 1.2167,-3.19221 -0.0865,-0.66086 -0.35446,-1.29705 -0.76275,-1.83339 0,0 0,0 0,0 -0.40818,-0.53576 -0.94787,-0.96938 -1.55863,-1.26521 0,0 -1e-5,0 -1e-5,0 -1.22435,-0.58723 -2.67801,-0.61988 -3.96943,-0.17184 -1.01826,0.34991 -1.94118,0.97489 -2.65836,1.79724 -0.71628,0.82233 -1.2212,1.82653 -1.46333,2.90257 -0.47628,2.16012 0.11651,4.50131 1.54999,6.2426 1.23332,1.49288 3.00422,2.5104 4.93712,2.85281 0.96623,0.16929 1.95522,0.17426 2.92311,0.0243 0.95911,-0.18041 1.88745,-0.51303 2.74315,-0.98389 2.52284,-1.40613 4.29635,-3.87792 4.96838,-6.62241 0.66409,-2.73219 0.31182,-5.61186 -0.80533,-8.12105 l 0,0 c -1.11405,-2.50113 -2.89953,-4.62552 -5.00905,-6.26386 -2.10504,-1.636759 -4.49086,-2.823554 -6.94368,-3.680086 -10.1303,-3.549353 -21.9421,-1.632262 -30.42982,4.938846 1.14177,1.00629 1.13142,1.03365 1.53234,1.97534 7.76645,-6.037821 18.79116,-7.827165 28.06854,-4.555612 2.25611,0.798442 4.40524,1.855752 6.23361,3.291652 l 0,0 c 1.82364,1.43411 3.35973,3.23827 4.26091,5.30316 0.89772,2.05602 1.20355,4.39856 0.66604,6.50962 l 0,0 c -0.52911,2.09696 -1.89476,4.03888 -3.7448,5.0328 -1.24886,0.68302 -2.73376,0.97739 -4.11818,0.77074 -0.32311,-0.0473 -0.64382,-0.12162 -0.95707,-0.22109 -1.04148,-0.27371 -2.03053,-0.82487 -2.78176,-1.60569 -1.13136,-1.16819 -1.77777,-2.93395 -1.53351,-4.59041 0,0 0,0 0,0 0.11797,-0.83445 0.44396,-1.65549 0.95375,-2.34392 0.50875,-0.68838 1.2077,-1.25718 2.0076,-1.60479 1.00654,-0.43305 2.20574,-0.52776 3.23371,-0.12023 0,0 0,0 0,0 0.5161,0.20151 0.99422,0.52125 1.36713,0.93872 0,0 0,0 0,0 0.37275,0.41679 0.64662,0.93465 0.7639,1.49004 0.21526,1.00018 -0.11266,2.14936 -0.87084,2.90885 -0.75663,0.76116 -1.9411,1.1273 -3.04084,0.8978 z"
         style="fill:#007259;fill-opacity:1;fill-rule:evenodd;stroke:none;stroke-width:2.08740902px;stroke-linecap:butt;stroke-linejoin:miter;stroke-opacity:1" />
      <path
         style="fill:#007259;fill-opacity:1;fill-rule:evenodd;stroke:none;stroke-width:1.92387736;stroke-linecap:butt;stroke-linejoin:miter;stroke-miterlimit:4;stroke-dasharray:none;stroke-opacity:1"
         d="m 210.37088,104.37186 c 1.47411,-3.05579 1.64994,-6.759272 0.42111,-10.002503 -1.2306,-3.242505 -3.84507,-5.968815 -7.11315,-7.338955 -2.87557,-1.200273 -6.17226,-1.346285 -9.20533,-0.481374 -3.02979,0.865749 -5.76517,2.69487 -7.81216,5.123016 -2.0442,2.426547 -3.406,5.4036 -4.00484,8.531276 -0.59786,3.12502 -0.4612,6.37137 0.29704,9.45988 1.2557,5.12213 4.19277,9.81722 8.27208,13.26453 4.07986,3.44229 9.21643,5.60337 14.58365,6.16514 3.66332,0.38064 7.393,0.0258 10.94267,-1.00833 1.63611,-0.51924 3.22654,-1.18282 4.74721,-1.98325 4.79078,-2.52583 8.8321,-6.34906 11.66576,-10.93427 4.426,-7.18934 5.78269,-16.043439 3.91941,-24.229759 -1.87332,-8.173856 -6.8168,-15.480205 -13.54964,-20.39914 -7.60577,-5.514066 -17.03192,-7.938719 -26.22597,-7.773543 -9.17299,0.158823 -18.07871,2.63144 -26.30612,6.198744 l 0,3e-6 c -15.33345,6.644634 -28.58569,16.748037 -41.7958,26.204205 -3.78933,2.697365 -7.61162,5.36312 -11.48419,7.93141 -12.17312,8.60152 -24.919838,16.23845 -39.001235,20.79036 -12.669857,4.10992 -26.263203,5.6414 -39.688392,4.40795 13.329957,2.01726 27.149815,1.30814 40.352132,-2.13413 14.658485,-3.83737 28.235855,-10.87123 41.111645,-18.8809 3.93994,-2.61257 7.80611,-5.31642 11.6158,-8.045714 13.32114,-9.490475 26.26461,-19.419704 40.86946,-25.681681 l 1e-5,-10e-7 c 7.82486,-3.352943 16.09557,-5.689578 24.40107,-5.790799 8.28081,-0.09481 16.69842,2.008732 23.20037,6.810224 5.76414,4.218854 10.06617,10.549351 11.6253,17.471584 1.56869,6.907697 0.41971,14.515617 -3.29629,20.491207 l -10e-6,10e-6 c -2.37237,3.8325 -5.77208,7.05732 -9.74094,9.13907 l -1e-5,0 c -3.96424,2.08343 -8.54297,3.06051 -12.98088,2.69612 -0.1581,-0.0128 -0.31611,-0.0273 -0.47399,-0.0435 -4.28465,-0.29912 -8.55314,-1.83982 -12.02716,-4.46276 -3.60276,-2.714 -6.40367,-6.62573 -7.7351,-11.01399 0,0 0,0 0,0 -0.80279,-2.65042 -1.09559,-5.47517 -0.72083,-8.21733 0.37361,-2.7389 1.40423,-5.420404 3.0783,-7.636487 1.67065,-2.213914 3.9948,-3.989057 6.64366,-4.900771 2.64449,-0.912446 5.63892,-0.970273 8.31451,-0.01772 3.0389,1.075045 5.65896,3.478824 7.00076,6.50268 1.34379,3.023039 1.40309,6.656615 0.10009,9.789525 z"
         id="major-swirl"
         inkscape:path-effect="#path-effect4220;#path-effect4222"
         inkscape:original-d="m 39.032983,128.29725 c 3.350185,-1.41741 13.378462,5.46573 40.020262,-3.27104 14.27386,-4.6809 33.334735,-17.89903 51.606435,-27.824192 22.64539,-12.300939 29.09224,-23.921493 41.33263,-25.942943 10.01643,-1.18168 46.94818,-1.07356 50.06677,1.29711 2.67117,2.03084 -29.0936,33.051835 8.97962,41.295845 38.07322,8.24402 -49.66527,-11.43253 -46.67299,-4.57059 2.99228,6.86194 31.66351,-19.557982 19.12075,-21.757272 -98.70147,-17.306713 -3.13197,10.05359 6.88442,16.847692"
         inkscape:connector-curvature="0"
         sodipodi:nodetypes="csscszzsc"
         inkscape:tile-cx="-3.8919892"
         inkscape:tile-cy="54.373561"
         inkscape:tile-w="228.09365"
         inkscape:tile-h="66.254273"
         inkscape:tile-x0="-117.93882"
         inkscape:tile-y0="21.246424" />
      <path
         style="display:inline;fill:#007259;fill-opacity:1;fill-rule:evenodd;stroke:none;stroke-width:1.92387736;stroke-linecap:butt;stroke-linejoin:miter;stroke-miterlimit:4;stroke-dasharray:none;stroke-opacity:1"
         d="m 208.05908,64.056182 c -5.35047,-1.032655 -10.80817,-1.584193 -16.28546,-1.640649 0,0 0,10e-7 0,10e-7 -15.29666,-0.155742 -30.64274,3.584765 -44.59672,10.25334 -7.55692,3.613217 -14.67565,8.030144 -21.56329,12.689219 -1.37286,0.987036 -2.73554,1.983635 -4.09018,2.985255 -8.04206,5.937379 -15.84666,12.061892 -24.006517,17.532572 -8.613489,5.76642 -17.659053,10.85743 -27.30454,14.16896 l -8e-6,10e-6 c -9.638225,3.30306 -19.923525,4.87688 -29.860879,3.55583 -7.3012,-0.97145 -14.433733,-3.4671 -20.24583,-7.7566 l -6e-6,-1e-5 C 15.115113,112.13349 10.999223,107.07753 9.5265903,101.30424 8.589073,97.758171 8.5968604,93.937047 9.5857386,90.421198 10.413288,87.46797 11.93883,84.690302 13.989698,82.416041 c 0.374245,-0.44684 0.768772,-0.876887 1.182614,-1.28777 2.420416,-2.404337 5.528284,-4.197631 8.884054,-4.997448 3.351161,-0.802338 7.000444,-0.634548 10.274829,0.588686 3.92915,1.478955 7.433184,4.567179 8.904659,8.539381 0.746828,1.986794 1.014806,4.183468 0.688922,6.300162 0,0 -1e-6,3e-6 -1e-6,3e-6 -0.324234,2.114684 -1.239896,4.172734 -2.670741,5.800562 -1.23477,1.409039 -2.859099,2.508555 -4.660939,3.135493 0,0 -4e-6,0 -4e-6,0 -1.801633,0.6276 -3.790068,0.78526 -5.700438,0.4356 0,0 -4e-6,0 -4e-6,0 -1.910471,-0.3492 -3.747963,-1.207067 -5.263587,-2.475582 -1.515777,-1.268344 -2.710169,-2.948079 -3.414908,-4.83127 0.581204,1.924907 1.674245,3.711335 3.154108,5.122806 1.480016,1.411296 3.341081,2.442166 5.357874,2.948456 0,0 4e-6,0 4e-6,0 2.016889,0.50583 4.177485,0.48422 6.214687,-0.0792 0,0 4e-6,0 4e-6,0 2.037,-0.5641 3.934536,-1.665291 5.4531,-3.184462 1.754647,-1.759988 2.974614,-4.043336 3.513053,-6.498165 0,0 10e-7,-2e-6 10e-7,-2e-6 0.536831,-2.453043 0.407628,-5.042944 -0.330647,-7.463103 -1.496871,-4.836187 -5.294984,-8.799889 -9.956908,-10.869486 -3.837079,-1.714165 -8.189327,-2.233299 -12.379904,-1.511352 -4.186303,0.724536 -8.146361,2.642035 -11.37513,5.461989 -0.551372,0.481735 -1.080707,0.988251 -1.586597,1.517409 -2.5765526,2.857176 -4.4696758,6.301025 -5.5067046,10.0037 -1.2303804,4.406138 -1.2445374,9.103051 -0.078257,13.510412 1.9411239,7.13246 6.6823205,13.10598 12.4549785,17.29255 l 8e-6,0 c 6.64007,4.84692 14.542382,7.6514 22.555164,8.68309 10.881602,1.40216 21.926098,-0.24853 32.138465,-3.78643 l 8e-6,-10e-6 c 10.206239,-3.52982 19.637284,-8.81249 28.460989,-14.74392 8.3623,-5.61332 16.22845,-11.781179 24.19117,-17.662592 3.91405,-2.886602 7.85804,-5.712474 11.88491,-8.365064 4.05474,-2.866369 8.20856,-5.556202 12.53111,-7.952413 0,0 1e-5,-10e-7 1e-5,-10e-7 13.06463,-7.246583 27.77279,-11.862352 42.88237,-12.631389 5.41086,-0.276154 10.86281,-0.06373 16.26706,0.639521 z"
         id="major-swirl2"
         inkscape:path-effect="#path-effect4185;#path-effect4187"
         inkscape:original-d="m 22.214153,93.623858 c 19.55585,3.54484 21.73733,9.645782 19.60983,4.27167 -2.238319,-5.654039 1.73685,-17.418173 -6.84867,-22.735433 -8.58549,-5.31726 105.038487,57.160855 -21.456959,4.1797 C -112.97707,26.358431 -7.6948765,95.42248 7.1097139,101.94354 c 18.8118691,7.93466 -5.4167704,22.58548 11.5170191,15.91621 5.563064,-2.35364 11.897499,8.17709 21.400504,8.21985 20.128468,0.0906 43.499624,-9.77166 58.882442,-18.12758 22.645391,-12.300939 36.842241,-31.671495 49.082631,-33.692945 3.0633,-0.36139 39.73383,-10.014066 43.78997,-11.372422 9.20668,-3.083221 14.11196,-0.476122 16.2768,1.16953"
         inkscape:connector-curvature="0"
         sodipodi:nodetypes="csszccsscsc"
         inkscape:tile-cx="-3.8919892"
         inkscape:tile-cy="54.373561"
         inkscape:tile-w="228.09365"
         inkscape:tile-h="66.254273"
         inkscape:tile-x0="-117.93882"
         inkscape:tile-y0="21.246424" />
      <path
         style="fill:#007259;fill-opacity:1;fill-rule:evenodd;stroke:none;stroke-width:1px;stroke-linecap:butt;stroke-linejoin:miter;stroke-opacity:1"
         d="m 35.883051,87.723368 c 0.422329,1.291589 0.246453,2.777168 -0.512558,3.904318 -0.379506,0.563575 -0.896477,1.034939 -1.49619,1.354291 -0.599713,0.319352 -1.281313,0.485376 -1.960582,0.470071 -0.729763,-0.01644 -1.437471,-0.236596 -2.136307,-0.447432 -0.698836,-0.210837 -1.413311,-0.416125 -2.143113,-0.401508 -0.61209,0.01226 -1.220338,0.182991 -1.7494,0.491045 -0.529063,0.308054 -0.977785,0.75276 -1.290584,1.279031 -0.3128,0.52627 -0.488993,1.132959 -0.506756,1.744914 -0.01776,0.611955 0.122943,1.227842 0.40469,1.77137 -1.108323,-1.078829 -1.897598,-2.481514 -2.24446,-3.988809 -0.346862,-1.507295 -0.250086,-3.11388 0.275202,-4.568639 0.525288,-1.454759 1.477234,-2.752558 2.707044,-3.690544 1.22981,-0.937987 2.733144,-1.51285 4.275024,-1.634738 1.322759,-0.104566 2.685748,0.127829 3.850083,0.764185 1.164336,0.636355 2.115523,1.691269 2.527907,2.952445 z"
         id="path4162-7"
         inkscape:path-effect="#path-effect4276"
         inkscape:original-d="m 35.883051,87.723368 c 2.09071,4.45411 47.3944,-47.080673 -3.96933,5.72868 -1.45538,1.49647 -1.98961,0.95896 -4.27942,-0.84894 -2.28968,-1.80728 -0.30768,3.95605 -3.14205,5.28636 -2.09073,-4.45349 0.55911,-11.7924 5.01281,-13.88273 4.45378,-2.090333 4.28706,-0.738534 6.37799,3.71663 z"
         inkscape:connector-curvature="0"
         sodipodi:nodetypes="zssczz" />
      <path
         style="fill:#007259;fill-opacity:1;fill-rule:evenodd;stroke:none;stroke-width:1px;stroke-linecap:butt;stroke-linejoin:miter;stroke-opacity:1"
         d="m 195.93698,99.809348 c 0.4768,-1.272467 1.54193,-2.322849 2.83863,-2.72913 0.64835,-0.20314 1.34648,-0.248416 2.01429,-0.123299 0.66781,0.125117 1.30382,0.421122 1.82477,0.857289 0.55969,0.468601 0.97492,1.082532 1.38904,1.683646 0.41412,0.601116 0.84392,1.207666 1.42303,1.652036 0.4857,0.37269 1.06736,0.61922 1.67295,0.70905 0.60558,0.0898 1.23376,0.0228 1.80673,-0.19292 0.57297,-0.21566 1.08947,-0.57944 1.48552,-1.04628 0.39606,-0.46684 0.67081,-1.03572 0.79022,-1.636172 0.19185,1.534752 -0.0677,3.123182 -0.73819,4.517012 -0.67045,1.39383 -1.74939,2.58813 -3.06819,3.39624 -1.3188,0.80811 -2.87279,1.22717 -4.41907,1.19167 -1.54629,-0.0355 -3.07941,-0.52542 -4.35974,-1.39319 -1.09837,-0.74445 -2.01771,-1.77718 -2.52962,-3.00134 -0.51191,-1.22416 -0.59595,-2.64209 -0.13037,-3.884612 z"
         id="path4162-8"
         inkscape:path-effect="#path-effect4216"
         inkscape:original-d="m 195.93698,99.809348 c 1.14883,-4.78434 -66.41843,7.170672 6.67769,-1.99514 2.07125,-0.25968 2.15281,0.49367 2.81207,3.335682 0.65955,2.84138 2.71096,-2.897542 5.75542,-2.166322 -1.14851,4.783932 -7.80129,8.860642 -12.58519,7.711732 -4.78385,-1.14891 -3.80942,-2.10056 -2.65999,-6.885952 z"
         inkscape:connector-curvature="0"
         sodipodi:nodetypes="zssczz" />
    </g>
  </g>
  <g
     transform="translate(211.01021,0.11480663)"
     id="flower-6"
     inkscape:label="Flower">
    <g
       style="display:inline"
       inkscape:label="Back Petals"
       id="layer3"
       inkscape:groupmode="layer">
      <path
         sodipodi:nodetypes="csssc"
         inkscape:connector-curvature="0"
         id="center-petal"
         d="m 68.615539,68.929082 c 3.91071,-7.982147 13.91071,-43.910718 11.875,-54.999998 C 78.623679,3.7595889 73.526249,-0.05306433 68.526249,5.5776036e-4 63.526249,0.05417996 58.949089,3.6306069 56.829819,13.750513 c -2.30357,10.999993 7.69643,47.196422 11.78572,55.178569 z"
         style="fill:#f194be;fill-opacity:0.66666667;fill-rule:evenodd;stroke:none;stroke-width:1px;stroke-linecap:butt;stroke-linejoin:miter;stroke-opacity:1" />
      <g
         style="display:inline"
         inkscape:tile-y0="4.2894612"
         inkscape:tile-x0="168.84653"
         inkscape:tile-h="64.085531"
         inkscape:tile-w="61.219718"
         inkscape:tile-cy="36.332227"
         inkscape:tile-cx="199.45639"
         inkscape:label="Side Petals"
         id="left-back-petals"
         inkscape:groupmode="layer">
        <path
           inkscape:transform-center-y="-31.319791"
           inkscape:transform-center-x="19.212247"
           style="fill:#f194be;fill-opacity:0.66666667;fill-rule:evenodd;stroke:none;stroke-width:1px;stroke-linecap:butt;stroke-linejoin:miter;stroke-opacity:1"
           d="M 68.612299,68.929038 C 48.483369,55.080009 16.122089,7.6762678 37.173739,6.2183024 62.949779,4.4329728 66.515399,58.933025 68.612299,68.929038 Z"
           id="back-petal2-4"
           inkscape:connector-curvature="0"
           sodipodi:nodetypes="csc" />
        <path
           inkscape:transform-center-y="-25.355267"
           inkscape:transform-center-x="30.685113"
           style="fill:#f194be;fill-opacity:0.66666667;fill-rule:evenodd;stroke:none;stroke-width:1px;stroke-linecap:butt;stroke-linejoin:miter;stroke-opacity:1"
           d="M 68.611859,68.922616 C 44.434909,63.395139 -6.6577315,28.329376 10.697799,19.797612 31.548989,9.5474283 57.222469,54.095769 68.611859,68.922616 Z"
           id="back-petal1-0"
           inkscape:connector-curvature="0"
           sodipodi:nodetypes="csc" />
      </g>
      <use
         height="100%"
         width="100%"
         id="right-back-petals"
         transform="matrix(-1,0,0,1,137.21774,0.00169011)"
         xlink:href="#left-back-petals"
         inkscape:tiled-clone-of="left-front-petals"
         y="0"
         x="0" />
    </g>
    <g
       inkscape:tile-y0="20.097446"
       inkscape:tile-x0="161.45885"
       inkscape:tile-h="48.291982"
       inkscape:tile-w="68.619069"
       inkscape:tile-cy="44.243437"
       inkscape:tile-cx="195.76839"
       style="display:inline"
       inkscape:label="Front Petals"
       id="front-petals"
       inkscape:groupmode="layer">
      <g
         style="display:inline"
         inkscape:label="Front Side Petals"
         id="left-front-petals"
         inkscape:groupmode="layer">
        <path
           style="fill:#eb65a1;fill-opacity:0.66666667;fill-rule:evenodd;stroke:none;stroke-width:1px;stroke-linecap:butt;stroke-linejoin:miter;stroke-opacity:1"
           d="M 68.608884,68.930728 C 28.530964,62.927405 -14.309106,41.172971 4.5956135,31.318798 24.530964,20.927405 60.530964,59.927405 68.608884,68.930728 Z"
           id="front-petal1-1"
           inkscape:connector-curvature="0"
           sodipodi:nodetypes="csc" />
        <path
           style="fill:#eb65a2;fill-opacity:0.66666667;fill-rule:evenodd;stroke:none;stroke-width:1px;stroke-linecap:butt;stroke-linejoin:miter;stroke-opacity:1"
           d="m 68.609723,68.930728 c -21.73103,-10.65103 -50.80481,-50.26559 -27.98056,-48.21522 22.82414,2.05098 27.18411,41.065619 27.98056,48.21522 z"
           id="front-petal2-4"
           inkscape:connector-curvature="0"
           sodipodi:nodetypes="ccc" />
      </g>
      <use
         height="100%"
         width="100%"
         id="right-front-petals"
         transform="matrix(-0.99985561,0,0,1,137.20832,1.0744066e-7)"
         xlink:href="#left-front-petals"
         inkscape:tiled-clone-of="#left-front-petals"
         y="0"
         x="0" />
    </g>
  </g>
</svg>
