<?xml version="1.0" encoding="UTF-8" standalone="no"?>
<!-- Created with Inkscape (http://www.inkscape.org/) -->

<svg
   xmlns:dc="http://purl.org/dc/elements/1.1/"
   xmlns:cc="http://creativecommons.org/ns#"
   xmlns:rdf="http://www.w3.org/1999/02/22-rdf-syntax-ns#"
   xmlns:svg="http://www.w3.org/2000/svg"
   xmlns="http://www.w3.org/2000/svg"
   xmlns:xlink="http://www.w3.org/1999/xlink"
   xmlns:sodipodi="http://sodipodi.sourceforge.net/DTD/sodipodi-0.dtd"
   xmlns:inkscape="http://www.inkscape.org/namespaces/inkscape"
   width="262.34012"
   height="76.762642"
   viewBox="0 0 262.34009 76.762642"
   id="svg2"
   version="1.1"
   inkscape:version="0.91 r13725"
   sodipodi:docname="swirl-divider2.svg">
  <defs
     id="defs4">
    <inkscape:path-effect
       pattern-nodetypes="cccccc"
       fuse_tolerance="0"
       vertical_pattern="false"
       prop_units="false"
       tang_offset="0"
       normal_offset="0"
       spacing="0"
       scale_y_rel="false"
       prop_scale="0.4"
       copytype="single_stretched"
       pattern="m 338.47788,-58.559787 -44.99998,-5 -85.00001,0 c -0.24216,3.336908 -0.1212,6.663418 0,10 l 90.00001,0 39.99999,-5"
       is_visible="true"
       id="path-effect4881"
       effect="skeletal" />
    <inkscape:path-effect
       is_visible="true"
       id="path-effect4879"
       effect="spiro" />
    <inkscape:path-effect
       effect="skeletal"
       id="path-effect4849"
       is_visible="true"
       pattern="m 137.75302,-953.38574 -44.999974,-5 -85.0000091,0 -40.0000079,5 40.0000079,5 90.0000091,0 39.999984,-5"
       copytype="single_stretched"
       prop_scale="0.55"
       scale_y_rel="false"
       spacing="0"
       normal_offset="0"
       tang_offset="0"
       prop_units="false"
       vertical_pattern="false"
       fuse_tolerance="0" />
    <inkscape:path-effect
       effect="skeletal"
       id="path-effect4842"
       is_visible="true"
       pattern="m 190.73704,-59.83293 -44.99998,-5 -85.000014,0 c -0.242161,3.336908 -0.121199,6.663418 0,10 l 90.000014,0 39.99999,-5"
       copytype="single_stretched"
       prop_scale="0.4"
       scale_y_rel="false"
       spacing="0"
       normal_offset="0"
       tang_offset="0"
       prop_units="false"
       vertical_pattern="false"
       fuse_tolerance="0"
       pattern-nodetypes="cccccc" />
    <inkscape:path-effect
       effect="spiro"
       id="path-effect4144"
       is_visible="true" />
    <inkscape:path-effect
       effect="spiro"
       id="path-effect4138"
       is_visible="true" />
    <inkscape:path-effect
       effect="spiro"
       id="path-effect4144-5"
       is_visible="true" />
    <inkscape:path-effect
       effect="skeletal"
       id="path-effect4842-4"
       is_visible="true"
       pattern="m 104.40114,-74.83138 -44.999979,-5 -85.000011,0 c -0.242161,3.336908 -0.121199,6.663418 0,10 l 90.000011,0 39.999989,-5"
       copytype="single_stretched"
       prop_scale="0.4"
       scale_y_rel="false"
       spacing="0"
       normal_offset="0"
       tang_offset="0"
       prop_units="false"
       vertical_pattern="false"
       fuse_tolerance="0"
       pattern-nodetypes="cccccc" />
  </defs>
  <sodipodi:namedview
     id="base"
     pagecolor="#ffffff"
     bordercolor="#666666"
     borderopacity="1.0"
     inkscape:pageopacity="0.0"
     inkscape:pageshadow="2"
     inkscape:zoom="3.4648232"
     inkscape:cx="77.155708"
     inkscape:cy="62.068542"
     inkscape:document-units="px"
     inkscape:current-layer="layer1"
     showgrid="false"
     units="px"
     fit-margin-top="0"
     fit-margin-left="0"
     fit-margin-right="0"
     fit-margin-bottom="0"
     inkscape:window-width="1920"
     inkscape:window-height="1018"
     inkscape:window-x="-8"
     inkscape:window-y="-8"
     inkscape:window-maximized="1" />
  <metadata
     id="metadata7">
    <rdf:RDF>
      <cc:Work
         rdf:about="">
        <dc:format>image/svg+xml</dc:format>
        <dc:type
           rdf:resource="http://purl.org/dc/dcmitype/StillImage" />
        <dc:title></dc:title>
      </cc:Work>
    </rdf:RDF>
  </metadata>
  <g
     inkscape:label="Layer 1"
     inkscape:groupmode="layer"
     id="layer1">
    <path
       style="fill:#ebe5da;fill-opacity:1;fill-rule:evenodd;stroke:none;stroke-width:0.95392942px;stroke-linecap:butt;stroke-linejoin:miter;stroke-opacity:1"
       d="m 25.068612,47.219119 c 1.667874,-3.220659 4.39612,-5.846403 7.611223,-7.378753 3.214718,-1.533119 6.913229,-1.97224 10.337411,-1.265784 3.424483,0.704763 6.584601,2.555995 8.844605,5.137487 0,0 2e-6,5e-6 2e-6,5e-6 2.261893,2.579737 3.639902,5.905965 3.878069,9.263217 0.225373,3.087637 -0.505491,6.226523 -1.948534,8.939034 -1.44338,2.716517 -3.623147,5.028951 -6.172373,6.731433 -10e-7,-10e-7 -4e-6,2e-6 -4e-6,2e-6 -5.078258,3.424807 -11.698354,4.260741 -17.729114,3.100544 C 24.236971,70.643501 18.990215,67.708435 14.934757,63.67129 13.000905,61.856031 11.308266,59.789693 9.940455,57.538328 5.596754,50.430427 4.4036162,41.358474 6.5385885,33.259551 8.2029521,26.895652 11.892555,21.038245 16.771171,16.521311 l 3e-6,-2e-6 C 21.65436,11.996713 27.785226,8.7909983 34.286945,7.0580678 48.851014,3.0905811 64.911839,6.9366899 78.799413,13.930371 l 8e-6,5e-6 c 13.915829,7.057532 26.135749,17.401652 38.821239,27.30496 4.73117,3.709153 9.5504,7.368037 14.50474,10.856086 9.2257,6.090543 18.86487,11.589441 29.13635,15.739532 18.23583,7.349771 38.11856,10.149063 57.39468,8.214837 C 199.2986,76.810388 179.90973,72.802858 162.67347,64.60924 152.95154,59.998487 143.94363,54.089803 135.29807,47.58853 130.45281,44.171938 125.70572,40.570104 121.00976,36.903594 108.45343,27.058023 95.936219,16.524356 81.296666,9.0299903 l -5e-6,-2.4e-6 C 66.640512,1.4777129 49.27707,-2.5069457 32.876343,1.7420352 25.561385,3.6753416 18.656756,7.3063427 13.039285,12.481134 7.4179274,17.662957 3.1995162,24.399762 1.2202769,31.857567 -1.2983885,41.41183 0.10095223,51.903465 5.240752,60.395388 c 3.7777229,6.210928 9.510587,11.152704 16.169243,14.012171 2.473375,0.981507 5.055646,1.675826 7.692258,2.047369 7.176835,1.030207 14.783554,-0.511719 20.617276,-4.847115 0,0 4e-6,-3e-6 4e-6,-3e-6 2.907996,-2.18063 5.287709,-5.046838 6.812353,-8.333043 1.524854,-3.290369 2.139119,-6.977476 1.683505,-10.548668 -0.503722,-3.888751 -2.290371,-7.537116 -4.985564,-10.283101 -2.69732,-2.744011 -6.261842,-4.542498 -9.99562,-5.09334 -3.734116,-0.548938 -7.592859,0.156691 -10.837329,1.936801 -3.24403,1.780971 -5.84701,4.621656 -7.328276,7.93268"
       id="path4136"
       inkscape:path-effect="#path-effect4138;#path-effect4849"
       inkscape:original-d="M 218.65643,76.045791 C 206.06558,78.637132 179.21058,68.071619 161.96761,66.220097 144.0193,64.292834 108.12458,50.104889 119.31521,39.069465 169.70875,-10.624941 41.764575,5.9428069 33.581644,4.4000515 25.398715,2.8573976 19.511421,15.353989 3.8794327,32.558559 -11.75259,49.763499 -2.5955803,64.324136 29.519241,73.962127 61.634064,83.600129 65.029103,78.550637 56.904848,52.858024 48.417072,26.015792 34.306451,37.120148 25.068602,47.219139"
       inkscape:connector-curvature="0"
       sodipodi:nodetypes="csscsssc" />
    <path
       style="fill:#ebe5da;fill-opacity:1;fill-rule:evenodd;stroke:none;stroke-width:1px;stroke-linecap:butt;stroke-linejoin:miter;stroke-opacity:1"
       d="m 103.27603,62.565936 c 0.57513,-2.056659 0.24024,-4.403146 -0.96696,-6.279109 -1.20939,-1.874392 -3.259639,-3.229581 -5.55796,-3.587886 -1.733953,-0.266368 -3.557423,0.02718 -5.162934,0.832892 -1.603285,0.80654 -2.963436,2.095649 -3.883464,3.677835 -0.917689,1.581447 -1.391686,3.416701 -1.367967,5.273942 0.02515,1.855308 0.529822,3.698856 1.451055,5.335266 10e-7,0 10e-7,2e-6 10e-7,2e-6 1.251862,2.213845 3.207877,4.004616 5.540869,5.10081 0.421027,0.197193 0.851687,0.372063 1.289945,0.524471 2.012257,0.60499 4.140115,0.736354 6.196565,0.409367 2.50547,-0.400453 4.86024,-1.437652 6.84976,-2.945775 1.98615,-1.506856 3.60003,-3.437194 4.76414,-5.595206 l 0,-4e-6 c 1.68438,-3.14554 2.44593,-6.655496 2.48375,-10.100789 l 0,-2e-6 c 0.0414,-3.437746 -0.55164,-6.794656 -1.46231,-9.979633 -3.58488,-12.637826 -12.23621,-23.702776 -23.633193,-30.233667 -0.845304,1.032428 -1.421583,2.279424 -1.987156,3.47135 10.462985,5.982734 18.493799,16.253834 21.771669,27.852117 0.82218,2.934642 1.36492,5.908398 1.31144,8.830172 l 0,3e-6 c -0.057,2.913814 -0.6579,5.808802 -2.00168,8.255887 -0.91492,1.681672 -2.16003,3.183 -3.65782,4.308174 -1.49433,1.123817 -3.25263,1.907754 -5.06036,2.185992 -1.802822,0.279531 -3.695066,0.08388 -5.336633,-0.614737 -0.812036,-0.343709 -1.578659,-0.811154 -2.255986,-1.37583 -0.728429,-0.52643 -1.379063,-1.165666 -1.901081,-1.897667 -0.768979,-1.071602 -1.295031,-2.357756 -1.457073,-3.691959 -0.163646,-1.331926 0.02365,-2.744493 0.582889,-3.999894 0.556544,-1.254457 1.492614,-2.385131 2.679727,-3.149856 1.184472,-0.765577 2.643679,-1.185223 4.099536,-1.11731 1.920608,0.08314 3.875161,1.049219 5.149431,2.628355 1.27675,1.577364 1.87523,3.775862 1.5218,5.882698 z"
       id="path4142"
       inkscape:path-effect="#path-effect4144;#path-effect4842"
       inkscape:original-d="m 88.71611,16.672698 c 10.286501,16.348545 17.21258,5.180793 22.81007,29.104319 5.59741,23.923563 7.35128,17.523409 -0.85584,18.583243 -8.20735,1.059884 -22.016696,7.666346 -21.512224,2.609222 0.504548,-5.057138 4.797715,-15.13729 7.524142,-13.632447 2.726501,1.504819 6.593772,9.22891 6.593772,9.22891"
       inkscape:connector-curvature="0"
       sodipodi:nodetypes="cssscc" />
    <use
       x="0"
       y="0"
       xlink:href="#path4136"
       id="use4856"
       transform="matrix(-1,0,0,-1,262.34008,76.76264)"
       width="100%"
       height="100%" />
    <path
       style="fill:#ebe5da;fill-opacity:1;fill-rule:evenodd;stroke:none;stroke-width:1px;stroke-linecap:butt;stroke-linejoin:miter;stroke-opacity:1"
       d="m 185.31449,26.062763 c -1.74345,1.23328 -3.9874,1.653147 -5.97399,1.187415 -1.98706,-0.463068 -3.72107,-1.809758 -4.64395,-3.522279 -0.70324,-1.295843 -0.96578,-2.810199 -0.79061,-4.231923 0.17349,-1.423528 0.79122,-2.78056 1.69406,-3.84887 0.90257,-1.070837 2.11356,-1.871695 3.41136,-2.315724 1.29903,-0.446187 2.71558,-0.537707 4.04727,-0.308723 0,10e-7 0,10e-7 0,10e-7 1.80175,0.305051 3.49269,1.235817 4.75702,2.507639 0.2297,0.230105 0.4464,0.473235 0.64967,0.727397 0.98781,1.091881 1.72815,2.4418 2.15465,3.874268 0.52386,1.752386 0.56968,3.67699 0.19526,5.508867 -0.37415,1.835598 -1.19648,3.604228 -2.32332,5.151909 l 0,3e-6 c -1.6344,2.263344 -3.99201,4.047617 -6.59984,5.348691 l 0,1e-6 c -2.61655,1.301274 -5.53573,2.086223 -8.53941,2.601957 -11.88336,2.012585 -24.606,-0.837711 -34.49759,-7.724192 -0.94407,0.992556 -1.60393,2.10715 -2.2838,3.283798 10.78732,7.49517 24.49321,10.565592 37.44733,8.38457 3.26778,-0.543151 6.55467,-1.446978 9.64252,-2.95859 l 0,-3e-6 c 3.0962,-1.511628 5.94045,-3.704787 8.05975,-6.575346 1.45031,-1.977064 2.50205,-4.262812 3.01159,-6.703265 l 0,-4e-6 c 0.50924,-2.444029 0.43642,-5.016078 -0.27625,-7.451199 -0.71588,-2.43879 -2.09431,-4.680837 -4.01454,-6.406986 -0.95539,-0.856485 -2.03792,-1.56621 -3.20483,-2.100901 -1.21225,-0.487156 -2.49436,-0.7855989 -3.79637,-0.8732228 -1.90721,-0.1243183 -3.81815,0.2255454 -5.52922,1.0188668 0,0 0,1e-6 0,1e-6 -1.71236,0.79571 -3.18225,2.036829 -4.22565,3.571304 -1.04302,1.537217 -1.62202,3.3453 -1.65482,5.162721 -0.0309,1.819294 0.5018,3.608641 1.50357,5.070607 0,0 0,2e-6 0,2e-6 1.33344,1.935738 3.46,3.202012 5.68597,3.479861 2.22652,0.274849 4.49112,-0.446612 6.09418,-1.858656 z"
       id="path4142-5"
       inkscape:path-effect="#path-effect4879;#path-effect4881"
       inkscape:original-d="m 137.61152,32.590202 c 19.18021,2.281822 12.06161,13.327844 36.07411,8.125278 24.01248,-5.202651 18.98283,-0.87363 16.42076,-8.742294 -2.56212,-7.868892 -2.51588,-23.1770957 -6.86807,-20.552695 -4.35215,2.624479 -11.61734,10.825569 -9.08869,12.643245 2.52863,1.81776 11.16487,1.999022 11.16487,1.999022"
       inkscape:connector-curvature="0"
       sodipodi:nodetypes="cssscc" />
  </g>
</svg>
